<svg version="1.1" id="Layer_1" xmlns="http://www.w3.org/2000/svg" xmlns:xlink="http://www.w3.org/1999/xlink" x="0px" y="0px"
	 width="100%" viewBox="0 0 280 280" enable-background="new 0 0 280 280" xml:space="preserve">
<path fill="#000000" opacity="1.000000" stroke="none" 
	d="
M153.000000,281.000000 
	C102.000000,281.000000 51.500000,281.000000 1.000000,281.000000 
	C1.000000,187.666672 1.000000,94.333336 1.000000,1.000000 
	C94.333336,1.000000 187.666672,1.000000 281.000000,1.000000 
	C281.000000,94.333336 281.000000,187.666672 281.000000,281.000000 
	C238.500000,281.000000 196.000000,281.000000 153.000000,281.000000 
M185.461197,205.873566 
	C185.885925,205.550446 186.310654,205.227325 187.311752,205.293549 
	C188.542923,205.597092 189.774109,205.900635 191.005295,206.204178 
	C190.658676,204.465286 190.312057,202.726410 190.055954,200.507492 
	C190.442612,200.232025 190.829269,199.956558 192.077621,199.827362 
	C194.848236,198.751495 197.618835,197.675629 200.365738,196.608963 
	C199.687424,194.816742 199.288834,193.763580 199.170166,192.181992 
	C199.864914,191.487732 200.559677,190.793457 201.867935,189.928513 
	C202.399490,189.818558 202.931046,189.708603 203.684891,189.926910 
	C203.799500,189.986160 203.914124,190.045395 204.028732,190.104645 
	C203.893158,189.885162 203.757584,189.665680 203.371643,188.820328 
	C204.287888,187.892822 205.204147,186.965302 206.659805,185.873322 
	C207.143494,185.308884 207.627182,184.744446 208.534134,184.123993 
	C208.770416,183.962097 209.023407,183.832977 210.164001,183.798477 
	C212.079712,182.850494 214.494507,182.294449 215.685730,180.777527 
	C216.224503,180.091476 214.330780,177.495224 213.515793,174.966782 
	C215.394089,168.991608 217.272385,163.016434 219.681595,156.845490 
	C219.456329,155.535675 219.231064,154.225876 219.118744,152.258133 
	C219.714783,150.835876 220.310806,149.413620 221.167435,147.087784 
	C221.169098,141.725540 221.170776,136.363297 221.878876,130.739975 
	C222.994125,127.523911 225.145218,124.120819 220.112671,121.342590 
	C220.044754,120.905388 219.976837,120.468178 220.606796,119.919395 
	C221.750549,118.760162 222.894302,117.600937 223.640503,116.844627 
	C222.256927,114.807182 221.421890,113.441200 220.449387,112.181320 
	C219.337509,110.740860 218.103394,109.394768 216.611282,107.391289 
	C215.686523,105.296623 214.761765,103.201950 214.376801,100.591057 
	C215.939468,96.819603 213.292099,97.074577 211.001221,97.000496 
	C211.001221,97.000496 210.976730,97.036171 210.970642,96.332062 
	C210.295105,95.563118 209.619568,94.794174 208.990997,93.994293 
	C208.990997,93.994293 208.971344,94.046967 208.873871,93.409958 
	C208.235275,92.937492 207.596680,92.465027 206.683258,91.443695 
	C205.765320,90.341835 204.847397,89.239975 203.953140,87.345734 
	C202.544968,81.100685 199.923920,78.456520 194.218643,77.967484 
	C193.783264,77.367104 193.347900,76.766716 192.937027,75.392891 
	C191.892761,74.630806 190.848511,73.868729 189.189362,72.940811 
	C187.750763,71.380959 186.312164,69.821106 184.879959,67.566589 
	C183.873032,67.117928 182.866104,66.669266 181.433136,66.180290 
	C181.433136,66.180290 181.015732,66.085892 180.736206,65.431404 
	C179.967041,62.845612 178.815567,61.066845 175.420456,63.098248 
	C175.420456,63.098248 174.996750,63.023758 174.997635,62.210194 
	C174.403549,60.861561 173.809448,59.512928 173.215347,58.164291 
	C172.138214,59.140396 171.061096,60.116505 169.325455,61.064804 
	C168.526001,60.767628 167.726532,60.470451 166.844299,59.476421 
	C165.079620,57.222630 164.377579,58.279465 163.428558,60.505798 
	C163.233032,60.470535 163.037521,60.435272 162.596146,59.840519 
	C161.732147,59.885162 160.868149,59.929806 159.165527,59.976067 
	C156.110977,59.613903 153.056412,59.251743 149.824417,58.257065 
	C148.899551,57.944534 147.974701,57.632008 147.049835,57.319481 
	C147.137619,57.940948 147.225388,58.562412 147.273117,59.871262 
	C147.329498,60.553356 147.385880,61.235455 146.615265,61.854866 
	C146.067963,61.931049 145.520676,62.007233 144.406418,61.975342 
	C143.677368,61.424713 142.948303,60.874081 141.665207,59.720310 
	C138.682297,59.720310 135.699402,59.720310 132.891479,59.720310 
	C132.533707,61.957962 132.309830,63.358181 131.313766,64.823708 
	C130.542725,64.815910 129.771698,64.808113 128.848587,64.217506 
	C127.897041,64.396515 126.945488,64.575523 125.420807,64.876251 
	C124.950363,65.153915 124.479912,65.431572 123.132202,65.758270 
	C121.089447,65.769272 119.046684,65.780266 117.196350,65.126732 
	C118.510361,63.237690 120.344643,61.221733 117.276810,59.425735 
	C113.144173,57.006371 107.740250,59.647373 106.878929,64.300438 
	C106.767830,64.900627 106.301682,65.435089 105.905365,65.791946 
	C105.905365,65.791946 105.629890,65.775925 105.629890,65.775925 
	C105.629890,65.775925 106.000000,66.000000 106.000076,66.556488 
	C106.001335,66.741982 106.002602,66.927467 105.457153,67.519875 
	C103.949890,68.002449 102.442627,68.485023 100.222107,68.920364 
	C99.607117,69.272041 98.992126,69.623726 97.811096,70.029404 
	C97.207382,70.671837 96.603668,71.314262 95.361778,72.182259 
	C94.310966,72.596062 93.260147,73.009857 91.800713,72.859177 
	C85.621948,73.716171 84.412712,74.997765 83.885376,81.561661 
	C83.885376,81.561661 83.628937,81.985329 82.871735,81.990730 
	C80.049049,82.321404 77.226372,82.652077 73.811577,83.052124 
	C74.387695,86.421333 74.966354,89.805397 75.235413,93.808975 
	C73.868439,95.889236 72.501465,97.969498 70.339760,100.029488 
	C68.958595,100.844383 66.605057,101.456497 66.384636,102.513451 
	C65.800949,105.312332 66.140053,108.303642 66.099625,111.986877 
	C65.710976,113.990959 65.322327,115.995049 64.263466,118.173691 
	C63.877850,119.189613 63.492233,120.205536 63.092136,121.746758 
	C62.860970,122.203033 62.629803,122.659317 61.694336,123.402184 
	C58.376530,125.830612 58.360619,128.845383 60.083015,132.999466 
	C59.744183,137.693237 59.405354,142.387009 59.018158,147.902435 
	C59.101639,148.985672 59.185120,150.068924 59.230457,152.007736 
	C59.346676,154.285141 59.462898,156.562561 58.866692,159.136948 
	C56.242134,163.566345 57.680679,168.971466 62.307190,171.464081 
	C62.291080,171.643738 62.274975,171.823395 61.541294,172.077560 
	C58.375225,173.458084 57.049751,174.631485 58.598713,178.987152 
	C60.528709,184.414307 63.865837,184.193069 68.090614,184.775299 
	C68.723373,187.331467 69.624367,189.578720 73.613838,188.996185 
	C73.827728,188.977264 74.041611,188.958328 74.656334,189.397522 
	C75.447060,189.550369 76.237793,189.703217 76.953568,190.460999 
	C76.930862,190.662903 76.908157,190.864807 76.649429,191.483398 
	C77.436508,191.987488 78.223595,192.491562 79.639076,193.125397 
	C80.809921,194.052933 81.980774,194.980484 82.544106,196.261505 
	C80.394928,198.399719 81.823059,199.032455 83.839897,198.937180 
	C86.231636,198.824158 88.605560,198.334091 91.000305,197.999390 
	C91.000305,197.999390 90.994186,198.013260 91.165802,198.694702 
	C92.580063,200.374313 93.994316,202.053925 95.491516,203.832031 
	C96.723610,203.516739 97.996178,203.191086 99.801361,203.133301 
	C100.534485,203.417511 101.267609,203.701721 102.101929,204.691696 
	C103.377083,207.853378 105.660912,209.359726 109.666008,209.042053 
	C110.110527,209.361771 110.555038,209.681488 111.124298,210.630493 
	C111.781548,211.071426 112.438805,211.512344 113.514389,212.186630 
	C113.782715,212.374573 113.986191,212.616943 113.780434,213.327515 
	C114.862465,213.531113 115.944496,213.734711 117.700790,214.061005 
	C119.128929,214.746094 120.557068,215.431198 122.017555,216.835678 
	C123.570038,218.517822 125.122513,220.199951 126.675011,221.882111 
	C127.429756,221.042404 128.184509,220.202698 129.326416,219.215759 
	C129.625961,219.212051 129.861557,219.087479 130.593231,219.062866 
	C131.061066,219.424988 131.528915,219.787094 132.046738,220.883438 
	C133.698975,224.227829 135.349335,224.057236 137.751328,220.757111 
	C138.500061,220.875595 139.248810,220.994095 140.056519,221.892899 
	C141.983170,222.580399 143.920441,223.879578 145.834595,223.846405 
	C152.989319,223.722427 160.136459,223.162170 167.568115,222.749924 
	C167.568115,222.020096 167.568115,220.792938 167.568115,220.998444 
	C170.038177,218.650360 171.646851,217.121140 173.692719,215.191528 
	C174.216797,215.385941 174.740860,215.580353 175.986893,215.760101 
	C184.061279,216.019348 184.061279,216.019348 184.040466,208.187027 
	C184.323914,207.435699 184.607346,206.684372 184.979645,205.949707 
	C184.979645,205.949707 184.919373,205.882339 185.461197,205.873566 
z"/>
<path fill="#D8D8D8" opacity="1.000000" stroke="none" 
	d="
M191.215927,199.681091 
	C190.829269,199.956558 190.442612,200.232025 189.722382,200.825317 
	C188.633118,201.785202 187.877426,202.427261 186.771820,203.076675 
	C185.921051,204.016800 185.420212,204.949570 184.919373,205.882339 
	C184.919373,205.882339 184.979645,205.949707 184.590439,205.964081 
	C183.783203,206.950943 183.365173,207.923462 182.819489,209.221420 
	C180.216217,211.622833 177.740570,213.698792 175.264923,215.774750 
	C174.740860,215.580353 174.216797,215.385941 173.832977,215.306549 
	C173.070557,212.890137 172.606873,212.445450 169.532501,214.477005 
	C160.467148,220.467514 150.508392,221.874023 139.997543,221.112595 
	C139.248810,220.994095 138.500061,220.875595 137.071686,220.606079 
	C134.926941,220.353088 133.461853,220.251144 131.996765,220.149200 
	C131.528915,219.787094 131.061066,219.424988 130.591248,218.653870 
	C134.973999,217.785141 139.358749,217.325409 143.743484,216.865677 
	C143.736221,216.426941 143.728943,215.988205 143.721680,215.549469 
	C140.481064,214.937653 137.240448,214.325836 133.937775,213.385925 
	C131.951263,212.098068 130.026825,211.138321 128.470490,210.127396 
	C129.568832,209.998459 130.299072,209.920685 131.345215,209.862778 
	C133.539474,210.169815 135.451263,210.832031 137.289459,210.668289 
	C141.483124,210.294708 145.626862,209.338470 149.821472,209.011475 
	C151.073608,208.913864 152.427200,210.117508 153.321320,210.803589 
	C152.893127,211.285782 152.877930,211.689331 152.862732,212.092896 
	C153.421036,211.964569 153.979340,211.836243 154.898651,211.710846 
	C167.194519,207.657608 174.306305,197.962570 182.089722,189.164551 
	C182.852112,189.976303 183.472473,190.510208 183.932709,191.347107 
	C182.882355,193.507355 181.992172,195.364594 181.101974,197.221832 
	C181.460052,197.426468 181.818130,197.631119 182.176208,197.835754 
	C184.017593,196.083755 185.858978,194.331757 187.883728,192.802948 
	C189.378998,192.350342 190.690887,191.674576 191.998688,191.351273 
	C191.640839,192.806412 191.287094,193.909088 190.746490,195.175797 
	C190.705109,195.892349 190.850555,196.444870 191.465759,197.070084 
	C192.247116,197.200241 192.558731,197.257706 192.709824,197.644806 
	C192.104828,198.543320 191.660385,199.112213 191.215927,199.681091 
M148.751755,212.097855 
	C149.773270,212.333313 150.794785,212.568771 151.816315,212.804230 
	C151.866135,212.298004 151.915955,211.791794 151.965790,211.285568 
	C151.134750,211.489975 150.303696,211.694397 148.751755,212.097855 
z"/>
<path fill="#353535" opacity="1.000000" stroke="none" 
	d="
M144.973358,62.083416 
	C145.520676,62.007233 146.067963,61.931049 147.418716,61.813839 
	C150.128662,61.931129 152.035172,62.089443 153.884659,62.535980 
	C153.616714,63.899303 153.405792,64.974403 153.418854,66.339981 
	C156.101746,67.019302 158.560638,67.408142 161.396210,67.875282 
	C165.212479,69.546402 168.652084,71.139221 172.211365,73.051170 
	C174.048370,75.056129 175.765701,76.741974 177.508499,78.450958 
	C177.533951,78.474098 177.584442,78.520805 177.712494,78.794754 
	C178.488281,79.513107 179.136032,79.957512 179.886841,80.572037 
	C179.989914,80.742165 180.350983,80.909157 180.412109,81.213943 
	C181.643326,82.356956 182.813416,83.195183 184.159851,84.317230 
	C189.379578,87.984245 194.422943,91.367447 199.576294,94.922028 
	C199.868103,95.307030 200.093643,95.453278 200.494659,95.735565 
	C200.841568,96.185822 201.094894,96.383774 201.556580,96.723900 
	C202.011490,97.099617 202.296204,97.284294 202.704834,97.687164 
	C203.203308,98.234146 203.577866,98.562950 203.998199,99.083817 
	C204.043945,99.275871 204.334778,99.542953 204.507645,99.792816 
	C205.146317,100.691765 205.612122,101.340866 205.716766,102.070091 
	C204.881500,103.468788 204.407379,104.787354 203.601501,106.016464 
	C197.088226,101.856224 190.642441,98.128349 184.795929,93.622864 
	C178.329132,88.639366 172.425659,82.926941 166.235840,77.579468 
	C165.423981,76.878082 164.408005,76.371727 163.418900,75.924789 
	C160.918167,74.794823 158.378906,73.750175 155.842743,72.335640 
	C153.882217,70.673714 151.934021,69.347496 149.974869,67.673157 
	C149.297684,66.556244 148.631424,65.787468 147.684662,64.869003 
	C146.620346,64.436203 145.836563,64.153099 145.036285,63.572632 
	C145.004333,62.877987 144.988846,62.480701 144.973358,62.083416 
M172.516815,82.049988 
	C174.605408,83.494675 176.694000,84.939362 178.782593,86.384048 
	C179.185989,85.825836 179.589371,85.267632 179.992767,84.709419 
	C176.839157,81.975296 173.685547,79.241173 170.531921,76.507050 
	C170.134094,76.919174 169.736252,77.331291 169.338425,77.743408 
	C170.226959,79.017845 171.115494,80.292282 172.516815,82.049988 
z"/>
<path fill="#2C2C2C" opacity="1.000000" stroke="none" 
	d="
M213.837006,101.107277 
	C214.761765,103.201950 215.686523,105.296623 216.765167,108.104767 
	C216.936096,111.214722 216.953125,113.611206 216.686676,115.837524 
	C215.117935,113.972816 213.832687,112.278282 212.559601,110.286110 
	C212.124237,109.677910 211.676712,109.367348 211.072052,108.828308 
	C210.600693,108.408775 210.286484,108.217705 210.024826,107.760620 
	C210.062302,107.314583 210.047256,107.134560 210.002716,106.971924 
	C209.973236,106.989311 210.004501,107.050194 210.376556,106.981476 
	C211.130936,106.119034 211.513260,105.325294 211.895569,104.531555 
	C210.940277,104.333206 209.984970,104.134857 209.015778,103.964676 
	C209.001862,103.992844 209.062210,103.975342 209.201965,103.587936 
	C209.246399,102.136963 209.151093,101.073410 208.921875,99.717171 
	C207.964966,98.445068 207.141998,97.465645 206.189819,96.209885 
	C205.385529,95.184746 204.710449,94.435936 204.019348,93.639442 
	C204.003296,93.591759 203.922455,93.531868 203.816925,93.310539 
	C203.484253,92.850739 203.226898,92.651245 202.853821,92.278336 
	C202.569550,91.827141 202.328308,91.644417 201.881287,91.206451 
	C200.114578,89.233849 198.511154,87.572578 196.745453,85.826454 
	C196.583160,85.741600 196.227585,85.829453 196.187439,85.846252 
	C196.147278,85.863052 196.091370,85.796318 195.985626,85.473969 
	C192.628418,79.916580 189.187759,74.883369 182.640320,72.630196 
	C180.746048,71.137886 179.063065,69.954391 177.335114,68.786194 
	C177.290115,68.801483 177.258102,68.890968 177.467819,68.632858 
	C177.538803,68.200279 177.400070,68.025826 177.046295,67.540337 
	C174.940704,66.722229 173.050186,66.215149 171.258148,65.551270 
	C171.356613,65.394478 171.081741,65.146347 170.938171,64.944534 
	C170.001419,64.313042 169.208252,63.883347 168.289490,63.160709 
	C166.939941,62.102001 165.715973,61.336231 164.884766,60.431023 
	C165.827393,60.252148 166.377243,60.212711 166.927078,60.173275 
	C167.726532,60.470451 168.526001,60.767628 169.902893,61.302299 
	C171.985794,62.034451 173.491272,62.529106 174.996750,63.023758 
	C174.996750,63.023758 175.420456,63.098248 175.834473,63.387199 
	C177.837585,64.479401 179.426651,65.282646 181.015732,66.085892 
	C181.015732,66.085892 181.433136,66.180290 181.753464,66.507751 
	C183.007050,67.310555 183.940292,67.785904 184.873550,68.261253 
	C186.312164,69.821106 187.750763,71.380959 189.674469,73.283546 
	C191.077209,74.472961 191.994873,75.319649 192.912521,76.166328 
	C193.347900,76.766716 193.783264,77.367104 194.604401,78.366699 
	C197.969910,81.889984 200.949677,85.014053 203.929459,88.138123 
	C204.847397,89.239975 205.765320,90.341835 206.613953,91.929283 
	C207.353546,92.958900 208.162445,93.502930 208.971344,94.046967 
	C208.971344,94.046967 208.990997,93.994293 208.844330,94.302078 
	C209.457352,95.418640 210.217041,96.227402 210.976730,97.036171 
	C210.976730,97.036171 211.001221,97.000496 211.021912,97.351410 
	C211.974075,98.837303 212.905533,99.972290 213.837006,101.107277 
z"/>
<path fill="#313131" opacity="1.000000" stroke="none" 
	d="
M62.398636,123.115593 
	C62.629803,122.659317 62.860970,122.203033 63.411827,121.351234 
	C64.132240,119.970184 64.532967,118.984657 64.933685,117.999130 
	C65.322327,115.995049 65.710976,113.990959 66.381119,111.372940 
	C68.482216,107.831573 70.301834,104.904152 72.407745,101.827370 
	C74.526566,99.833527 76.359085,97.989037 78.453110,96.195755 
	C79.375092,96.486023 80.035576,96.725082 80.641647,97.347244 
	C80.728394,98.485703 80.869560,99.241058 80.908218,100.289062 
	C80.135048,101.348656 79.464386,102.115593 78.577011,102.995392 
	C78.137245,103.367935 78.028343,103.668922 77.733070,104.132469 
	C74.922310,108.157494 72.412086,112.061264 69.602432,116.143372 
	C67.209518,122.549431 65.116043,128.777145 62.765324,135.287201 
	C61.961834,138.931290 61.487022,142.307770 60.801014,145.640778 
	C60.682739,146.215424 59.667454,146.605453 59.066521,147.080780 
	C59.405354,142.387009 59.744183,137.693237 60.339622,132.287262 
	C61.197037,128.755234 61.797836,125.935410 62.398636,123.115593 
z"/>
<path fill="#606060" opacity="1.000000" stroke="none" 
	d="
M145.052765,63.869987 
	C145.836563,64.153099 146.620346,64.436203 147.562683,65.163094 
	C146.878845,66.273064 146.036453,66.939247 144.668228,68.021286 
	C146.802734,68.021286 148.394272,68.021286 149.985809,68.021286 
	C151.934021,69.347496 153.882217,70.673714 155.576691,72.360992 
	C155.147400,72.752457 154.971832,72.782860 154.680954,72.790672 
	C154.565643,72.768074 154.330704,72.763100 154.063141,72.567734 
	C150.048889,71.820198 146.315125,70.937889 142.552582,70.790565 
	C136.377228,70.548782 130.183182,70.784004 123.802231,70.638077 
	C123.394936,69.378143 123.182434,68.298203 123.228699,67.034409 
	C123.661461,66.470116 123.835464,66.089676 124.009476,65.709236 
	C124.479912,65.431572 124.950363,65.153915 126.081520,64.873177 
	C127.495041,64.846840 128.247849,64.823578 129.000656,64.800323 
	C129.771698,64.808113 130.542725,64.815910 131.809616,65.069000 
	C133.194092,65.237267 134.082703,65.160248 135.001312,65.472855 
	C136.973312,66.729317 138.915329,67.596146 140.857330,68.462975 
	C141.067307,67.922256 141.277283,67.381546 141.487259,66.840828 
	C140.704788,66.382904 139.922318,65.924988 139.157349,65.477295 
	C141.279312,64.898773 143.166046,64.384384 145.052765,63.869987 
z"/>
<path fill="#727272" opacity="1.000000" stroke="none" 
	d="
M212.547455,110.583748 
	C213.832687,112.278282 215.117935,113.972816 216.767624,116.178864 
	C217.467667,117.769661 217.803253,118.848946 218.062851,120.292404 
	C218.420593,121.786385 218.854324,122.916191 219.227280,124.259033 
	C219.166504,124.472069 219.176453,124.915039 219.117188,125.257225 
	C219.641846,126.466728 220.225754,127.334045 220.838715,128.553894 
	C220.969315,129.604630 221.070892,130.302841 221.172455,131.001053 
	C221.170776,136.363297 221.169098,141.725540 220.646103,147.440491 
	C219.550949,143.015076 218.977142,138.236954 218.472702,134.036514 
	C217.985794,134.416901 216.970642,135.209946 215.978424,135.604736 
	C215.411499,133.240509 214.296646,131.264923 214.332550,129.310471 
	C214.431183,123.941452 213.629196,118.897789 211.108475,114.244766 
	C211.576614,113.179596 211.728592,112.142044 212.045654,110.972214 
	C212.210754,110.839935 212.547455,110.583748 212.547455,110.583748 
z"/>
<path fill="#212121" opacity="1.000000" stroke="none" 
	d="
M131.029312,209.842896 
	C130.299072,209.920685 129.568832,209.998459 128.085724,210.033661 
	C124.983192,209.353775 122.633530,208.716446 120.283875,208.079117 
	C120.114754,208.563446 119.945633,209.047760 119.776505,209.532089 
	C123.825378,212.897476 128.820847,214.176682 133.693161,215.304276 
	C130.326324,215.989777 127.266167,216.422455 123.912766,216.817200 
	C123.074745,216.558273 122.529984,216.337280 121.985214,216.116302 
	C120.557068,215.431198 119.128929,214.746094 117.143250,213.766693 
	C115.765411,213.286179 114.945122,213.099976 114.124825,212.913773 
	C113.986191,212.616943 113.782715,212.374573 113.221436,211.766449 
	C112.285507,210.897919 111.642525,210.449570 110.999550,210.001221 
	C110.555038,209.681488 110.110527,209.361771 109.524773,208.781815 
	C109.875885,208.044495 110.368233,207.567429 111.169640,207.020676 
	C111.996429,206.357956 112.514160,205.764893 113.253555,205.108002 
	C113.475227,205.044159 113.932892,204.985901 114.259583,204.935974 
	C116.142151,204.789627 117.882637,204.194901 119.219322,204.690109 
	C123.240417,206.179810 127.104179,208.094177 131.029312,209.842896 
z"/>
<path fill="#040404" opacity="1.000000" stroke="none" 
	d="
M140.027039,221.502747 
	C150.508392,221.874023 160.467148,220.467514 169.532501,214.477005 
	C172.606873,212.445450 173.070557,212.890137 173.614380,215.506729 
	C171.646851,217.121140 170.038177,218.650360 167.568115,220.998444 
	C167.568115,220.792938 167.568115,222.020096 167.568115,222.749924 
	C160.136459,223.162170 152.989319,223.722427 145.834595,223.846405 
	C143.920441,223.879578 141.983170,222.580399 140.027039,221.502747 
z"/>
<path fill="#494949" opacity="1.000000" stroke="none" 
	d="
M122.969940,67.218262 
	C123.182434,68.298203 123.394936,69.378143 123.597397,70.912140 
	C122.042274,72.234039 120.497185,73.101891 118.838715,73.640366 
	C116.930687,73.617897 115.136055,73.924805 113.032867,74.055183 
	C112.407005,73.530289 112.089691,73.181931 111.879990,72.906563 
	C111.987602,72.979553 111.774872,72.837837 112.034653,72.801682 
	C112.548439,72.534454 112.802437,72.303398 113.256149,72.034851 
	C113.643974,71.832611 113.832077,71.667877 114.020180,71.503136 
	C113.647453,71.634018 113.274734,71.764908 112.628281,71.928337 
	C112.175476,72.005852 111.996399,72.050819 111.398270,72.108322 
	C104.838181,73.452904 98.697136,74.784950 92.224876,76.215408 
	C91.235588,76.370872 90.577522,76.427933 89.927048,76.199127 
	C90.692879,75.083405 91.451111,74.253532 92.209335,73.423660 
	C93.260147,73.009857 94.310966,72.596062 96.011093,72.116089 
	C97.786018,71.816338 100.408699,72.821632 98.377129,69.975403 
	C98.992126,69.623726 99.607117,69.272041 100.837135,69.284729 
	C108.624756,68.838821 115.797348,68.028542 122.969940,67.218262 
z"/>
<path fill="#DDDDDD" opacity="1.000000" stroke="none" 
	d="
M192.870361,197.315170 
	C192.558731,197.257706 192.247116,197.200241 191.461823,196.738831 
	C190.969879,195.893814 190.951614,195.452789 190.933350,195.011749 
	C191.287094,193.909088 191.640839,192.806412 192.144287,191.153702 
	C191.537216,188.859009 190.797974,187.058594 188.268219,189.557892 
	C186.893967,189.838577 185.981506,190.044052 185.062714,189.868042 
	C187.040833,187.817093 189.025284,186.147629 191.147079,184.231537 
	C191.640289,183.922272 191.996185,183.859634 192.788269,183.844421 
	C195.811096,182.933868 198.397720,181.975922 200.980255,181.379730 
	C198.832458,187.793549 202.855347,186.461990 206.120392,186.037811 
	C205.204147,186.965302 204.287888,187.892822 203.471283,189.186340 
	C203.570938,189.552368 203.462601,189.598633 203.462601,189.598633 
	C202.931046,189.708603 202.399490,189.818558 201.197510,189.983795 
	C199.023010,189.009155 197.518936,187.979202 194.623489,185.996506 
	C194.830444,189.416321 194.978745,191.866821 195.168427,194.613647 
	C194.430008,195.711700 193.650177,196.513443 192.870361,197.315170 
z"/>
<path fill="#727272" opacity="1.000000" stroke="none" 
	d="
M59.042336,147.491608 
	C59.667454,146.605453 60.682739,146.215424 60.801014,145.640778 
	C61.487022,142.307770 61.961834,138.931290 62.994804,135.427902 
	C63.940716,135.830597 64.399902,136.374893 64.889099,137.327240 
	C63.197033,145.703003 64.512543,153.072311 69.163559,160.098083 
	C68.607201,161.367813 68.146355,162.305161 67.447456,163.726685 
	C66.489891,161.518173 65.776886,159.873703 65.063889,158.229233 
	C64.693764,158.507889 64.323639,158.786530 63.786510,158.974701 
	C63.619503,158.884232 63.328114,158.640518 63.292332,158.272339 
	C61.927235,155.653503 60.597919,153.402832 59.268600,151.152161 
	C59.185120,150.068924 59.101639,148.985672 59.042336,147.491608 
z"/>
<path fill="#A8A8A8" opacity="1.000000" stroke="none" 
	d="
M209.293121,183.736633 
	C209.023407,183.832977 208.770416,183.962097 208.324371,183.781433 
	C208.529236,182.025146 208.943832,180.611450 209.559982,178.907227 
	C209.614029,176.860718 209.466507,175.104736 209.691315,173.296661 
	C215.564117,172.617905 212.990311,167.552185 215.537323,164.477966 
	C213.482452,164.257141 212.228958,164.122421 211.030594,163.652817 
	C213.002350,161.522049 214.918976,159.726181 217.131973,157.838043 
	C218.002457,157.510925 218.576569,157.276077 219.150696,157.041245 
	C217.272385,163.016434 215.394089,168.991608 213.303528,175.539093 
	C211.825211,178.653152 210.559174,181.194885 209.293121,183.736633 
z"/>
<path fill="#212121" opacity="1.000000" stroke="none" 
	d="
M83.151619,195.908020 
	C81.980774,194.980484 80.809921,194.052933 79.255905,192.747681 
	C78.210312,191.935547 77.547882,191.501129 76.885452,191.066711 
	C76.908157,190.864807 76.930862,190.662903 77.178596,189.925079 
	C78.296684,188.906464 79.189751,188.423798 80.420258,187.916351 
	C81.832886,187.263397 82.908073,186.635223 84.322739,186.013977 
	C85.757675,187.045914 86.853142,188.070938 87.649284,189.171021 
	C85.586533,190.249893 84.643982,191.217056 87.133118,192.592987 
	C89.705856,194.015121 92.175690,195.623428 94.257446,197.355255 
	C92.880966,197.711243 91.937576,197.862259 90.994186,198.013275 
	C90.994186,198.013260 91.000305,197.999390 90.932678,197.687912 
	C88.293900,196.886963 85.722763,196.397491 83.151619,195.908020 
z"/>
<path fill="#040404" opacity="1.000000" stroke="none" 
	d="
M106.000038,66.278244 
	C106.301682,65.435089 106.767830,64.900627 106.878929,64.300438 
	C107.740250,59.647373 113.144173,57.006371 117.276810,59.425735 
	C120.344643,61.221733 118.510361,63.237690 116.673508,65.525566 
	C112.768402,66.320587 109.386139,66.716774 106.003868,67.112961 
	C106.002602,66.927467 106.001335,66.741982 106.000038,66.278244 
z"/>
<path fill="#494949" opacity="1.000000" stroke="none" 
	d="
M215.955505,136.003006 
	C216.970642,135.209946 217.985794,134.416901 218.472702,134.036514 
	C218.977142,138.236954 219.550949,143.015076 220.515808,147.892273 
	C220.310806,149.413620 219.714783,150.835876 218.919739,152.893768 
	C218.026093,154.417633 217.331421,155.305878 216.288727,156.044250 
	C215.945618,149.263916 215.950562,142.633469 215.955505,136.003006 
z"/>
<path fill="#040404" opacity="1.000000" stroke="none" 
	d="
M67.946007,184.055298 
	C63.865837,184.193069 60.528709,184.414307 58.598713,178.987152 
	C57.049751,174.631485 58.375225,173.458084 62.089001,172.162842 
	C62.728226,172.547134 62.902134,172.786240 63.129143,173.286163 
	C63.409031,174.400391 63.718212,175.193848 64.037140,176.342636 
	C65.567986,178.917587 67.089081,181.137207 68.444122,183.531433 
	C68.278069,183.706039 67.946007,184.055298 67.946007,184.055298 
z"/>
<path fill="#8C8C8C" opacity="1.000000" stroke="none" 
	d="
M164.491989,60.570465 
	C165.715973,61.336231 166.939941,62.102001 167.899567,63.269814 
	C166.441940,64.080254 165.248688,64.488647 163.666016,64.916214 
	C161.278809,64.525780 159.281006,64.116165 157.111298,63.416344 
	C155.940140,62.833344 154.940903,62.540554 153.941666,62.247761 
	C152.035172,62.089443 150.128662,61.931129 147.832214,61.845181 
	C147.385880,61.235455 147.329498,60.553356 147.632614,59.550140 
	C148.662033,59.115871 149.331940,59.002724 150.001862,58.889580 
	C153.056412,59.251743 156.110977,59.613903 159.735291,60.192757 
	C161.150696,60.406303 161.996368,60.403156 162.842026,60.400009 
	C163.037521,60.435272 163.233032,60.470535 163.817444,60.550407 
	C164.206314,60.595016 164.491989,60.570465 164.491989,60.570465 
z"/>
<path fill="#040404" opacity="1.000000" stroke="none" 
	d="
M75.545006,93.189461 
	C74.966354,89.805397 74.387695,86.421333 73.811577,83.052124 
	C77.226372,82.652077 80.049049,82.321404 83.348740,82.372589 
	C83.837616,83.796799 83.849487,84.839142 83.489105,85.944061 
	C82.038239,86.952766 80.959610,87.898880 79.568085,88.916496 
	C78.018456,90.388481 76.781731,91.788971 75.545006,93.189461 
z"/>
<path fill="#C6C6C6" opacity="1.000000" stroke="none" 
	d="
M63.158432,172.965393 
	C62.902134,172.786240 62.728226,172.547134 62.447784,172.125580 
	C62.274975,171.823395 62.291080,171.643738 62.223160,170.833679 
	C61.285789,166.415512 60.432453,162.627731 59.579117,158.839966 
	C59.462898,156.562561 59.346676,154.285141 59.249531,151.579956 
	C60.597919,153.402832 61.927235,155.653503 62.997780,158.548615 
	C63.104954,162.466370 63.573349,165.733047 63.785969,169.016312 
	C63.869984,170.313690 63.384567,171.647934 63.158432,172.965393 
z"/>
<path fill="#DDDDDD" opacity="1.000000" stroke="none" 
	d="
M105.730515,67.316422 
	C109.386139,66.716774 112.768402,66.320587 116.577301,65.857834 
	C119.046684,65.780266 121.089447,65.769272 123.570839,65.733749 
	C123.835464,66.089676 123.661461,66.470116 123.228699,67.034409 
	C115.797348,68.028542 108.624756,68.838821 101.193764,69.308350 
	C102.442627,68.485023 103.949890,68.002449 105.730515,67.316422 
z"/>
<path fill="#353535" opacity="1.000000" stroke="none" 
	d="
M113.031891,205.171844 
	C112.514160,205.764893 111.996429,206.357956 110.856232,206.968201 
	C107.489433,205.985565 104.745087,204.985748 102.000740,203.985931 
	C101.267609,203.701721 100.534485,203.417511 99.418892,202.674561 
	C97.952400,200.666534 96.868378,199.117264 96.051102,197.648468 
	C96.891304,197.802551 97.464752,197.876175 98.334404,198.134613 
	C103.431038,200.603546 108.231468,202.887695 113.031891,205.171844 
z"/>
<path fill="#DBDBDB" opacity="1.000000" stroke="none" 
	d="
M209.358429,179.197739 
	C208.943832,180.611450 208.529236,182.025146 208.112747,183.809448 
	C207.627182,184.744446 207.143494,185.308884 206.390106,185.955566 
	C202.855347,186.461990 198.832458,187.793549 200.990265,181.369995 
	C201.004333,180.998505 201.025467,180.983719 201.305908,180.957306 
	C202.038208,180.632721 202.490082,180.334579 202.965881,180.014313 
	C202.989807,179.992218 203.035858,179.946106 203.316620,179.800049 
	C205.292999,176.664322 207.293808,177.528275 209.358429,179.197739 
z"/>
<path fill="#606060" opacity="1.000000" stroke="none" 
	d="
M124.206009,216.855133 
	C127.266167,216.422455 130.326324,215.989777 133.697327,214.969894 
	C134.005386,214.159805 134.002609,213.936905 133.999832,213.714020 
	C137.240448,214.325836 140.481064,214.937653 143.721680,215.549469 
	C143.728943,215.988205 143.736221,216.426941 143.743484,216.865677 
	C139.358749,217.325409 134.973999,217.785141 130.311234,218.543457 
	C129.861557,219.087479 129.625961,219.212051 128.875244,219.169891 
	C127.018044,218.367722 125.612022,217.611435 124.206009,216.855133 
z"/>
<path fill="#BFBFBF" opacity="1.000000" stroke="none" 
	d="
M75.390213,93.499222 
	C76.781731,91.788971 78.018456,90.388481 79.868698,89.124680 
	C79.718681,91.555763 78.955147,93.850159 78.191605,96.144554 
	C76.359085,97.989037 74.526566,99.833527 72.336578,101.555618 
	C71.697571,100.972069 71.416031,100.510910 71.134491,100.049759 
	C72.501465,97.969498 73.868439,95.889236 75.390213,93.499222 
z"/>
<path fill="#040404" opacity="1.000000" stroke="none" 
	d="
M218.138840,119.928230 
	C217.803253,118.848946 217.467667,117.769661 217.051117,116.349030 
	C216.953125,113.611206 216.936096,111.214722 216.920715,108.412949 
	C218.103394,109.394768 219.337509,110.740860 220.449387,112.181320 
	C221.421890,113.441200 222.256927,114.807182 223.640503,116.844627 
	C222.894302,117.600937 221.750549,118.760162 219.963028,119.972809 
	C218.925781,119.993561 218.532318,119.960892 218.138840,119.928230 
z"/>
<path fill="#444444" opacity="1.000000" stroke="none" 
	d="
M145.036285,63.572632 
	C143.166046,64.384384 141.279312,64.898773 139.157349,65.477295 
	C139.922318,65.924988 140.704788,66.382904 141.487259,66.840828 
	C141.277283,67.381546 141.067307,67.922256 140.857330,68.462975 
	C138.915329,67.596146 136.973312,66.729317 135.278137,65.256180 
	C137.756393,63.207737 139.987823,61.765598 142.219254,60.323456 
	C142.948303,60.874081 143.677368,61.424713 144.689880,62.029381 
	C144.988846,62.480701 145.004333,62.877987 145.036285,63.572632 
z"/>
<path fill="#040404" opacity="1.000000" stroke="none" 
	d="
M141.942230,60.021881 
	C139.987823,61.765598 137.756393,63.207737 135.248138,64.866554 
	C134.082703,65.160248 133.194092,65.237267 132.195709,65.036346 
	C132.309830,63.358181 132.533707,61.957962 132.891479,59.720310 
	C135.699402,59.720310 138.682297,59.720310 141.942230,60.021881 
z"/>
<path fill="#040404" opacity="1.000000" stroke="none" 
	d="
M92.005020,73.141418 
	C91.451111,74.253532 90.692879,75.083405 89.820831,76.488998 
	C89.422775,77.579933 89.138542,78.095146 88.533760,78.691696 
	C87.387428,79.478432 86.561646,80.183823 85.448669,80.833939 
	C84.785988,80.882286 84.410484,80.985924 84.034988,81.089561 
	C84.412712,74.997765 85.621948,73.716171 92.005020,73.141418 
z"/>
<path fill="#040404" opacity="1.000000" stroke="none" 
	d="
M70.737122,100.039627 
	C71.416031,100.510910 71.697571,100.972069 72.050278,101.704971 
	C70.301834,104.904152 68.482216,107.831573 66.387283,110.988693 
	C66.140053,108.303642 65.800949,105.312332 66.384636,102.513451 
	C66.605057,101.456497 68.958595,100.844383 70.737122,100.039627 
z"/>
<path fill="#040404" opacity="1.000000" stroke="none" 
	d="
M59.222908,158.988464 
	C60.432453,162.627731 61.285789,166.415512 62.081902,170.602936 
	C57.680679,168.971466 56.242134,163.566345 59.222908,158.988464 
z"/>
<path fill="#040404" opacity="1.000000" stroke="none" 
	d="
M192.709824,197.644806 
	C193.650177,196.513443 194.430008,195.711700 195.524872,194.605713 
	C196.856689,193.771103 197.873459,193.240753 198.890228,192.710403 
	C199.288834,193.763580 199.687424,194.816742 200.365738,196.608963 
	C197.618835,197.675629 194.848236,198.751495 191.646774,199.754227 
	C191.660385,199.112213 192.104828,198.543320 192.709824,197.644806 
z"/>
<path fill="#040404" opacity="1.000000" stroke="none" 
	d="
M203.941299,87.741928 
	C200.949677,85.014053 197.969910,81.889984 194.891357,78.435120 
	C199.923920,78.456520 202.544968,81.100685 203.941299,87.741928 
z"/>
<path fill="#040404" opacity="1.000000" stroke="none" 
	d="
M175.625916,215.767426 
	C177.740570,213.698792 180.216217,211.622833 183.068146,209.234772 
	C183.444427,208.922684 183.929504,208.809921 183.929504,208.809921 
	C184.061279,216.019348 184.061279,216.019348 175.625916,215.767426 
z"/>
<path fill="#DBDBDB" opacity="1.000000" stroke="none" 
	d="
M199.030197,192.446198 
	C197.873459,193.240753 196.856689,193.771103 195.483490,194.309372 
	C194.978745,191.866821 194.830444,189.416321 194.623489,185.996506 
	C197.518936,187.979202 199.023010,189.009155 200.890747,190.069153 
	C200.559677,190.793457 199.864914,191.487732 199.030197,192.446198 
z"/>
<path fill="#040404" opacity="1.000000" stroke="none" 
	d="
M209.728561,183.767548 
	C210.559174,181.194885 211.825211,178.653152 213.315918,175.938492 
	C214.330780,177.495224 216.224503,180.091476 215.685730,180.777527 
	C214.494507,182.294449 212.079712,182.850494 209.728561,183.767548 
z"/>
<path fill="#040404" opacity="1.000000" stroke="none" 
	d="
M95.784348,197.567993 
	C96.868378,199.117264 97.952400,200.666534 99.152588,202.540619 
	C97.996178,203.191086 96.723610,203.516739 95.491516,203.832031 
	C93.994316,202.053925 92.580063,200.374313 91.079994,198.353989 
	C91.937576,197.862259 92.880966,197.711243 94.532127,197.455750 
	C95.421379,197.423508 95.602859,197.495743 95.784348,197.567993 
z"/>
<path fill="#040404" opacity="1.000000" stroke="none" 
	d="
M123.912766,216.817200 
	C125.612022,217.611435 127.018044,218.367722 128.681656,219.243515 
	C128.184509,220.202698 127.429756,221.042404 126.675003,221.882111 
	C125.122513,220.199951 123.570038,218.517822 122.001389,216.475983 
	C122.529984,216.337280 123.074745,216.558273 123.912766,216.817200 
z"/>
<path fill="#040404" opacity="1.000000" stroke="none" 
	d="
M82.847862,196.084763 
	C85.722763,196.397491 88.293900,196.886963 90.926125,197.691925 
	C88.605560,198.334091 86.231636,198.824158 83.839897,198.937180 
	C81.823059,199.032455 80.394928,198.399719 82.847862,196.084763 
z"/>
<path fill="#040404" opacity="1.000000" stroke="none" 
	d="
M219.176453,124.915039 
	C219.176453,124.915039 219.166504,124.472069 219.443268,124.060059 
	C219.912521,123.092491 220.105011,122.536934 220.297501,121.981369 
	C225.145218,124.120819 222.994125,127.523911 221.525665,130.870514 
	C221.070892,130.302841 220.969315,129.604630 220.905106,128.204910 
	C220.353790,126.640610 219.765121,125.777824 219.176453,124.915039 
z"/>
<path fill="#040404" opacity="1.000000" stroke="none" 
	d="
M174.997192,62.616978 
	C173.491272,62.529106 171.985794,62.034451 170.232147,61.316200 
	C171.061096,60.116505 172.138214,59.140396 173.215347,58.164291 
	C173.809448,59.512928 174.403549,60.861561 174.997192,62.616978 
z"/>
<path fill="#040404" opacity="1.000000" stroke="none" 
	d="
M102.051331,204.338806 
	C104.745087,204.985748 107.489433,205.985565 110.547180,207.037872 
	C110.368233,207.567429 109.875885,208.044495 109.244926,208.740707 
	C105.660912,209.359726 103.377083,207.853378 102.051331,204.338806 
z"/>
<path fill="#040404" opacity="1.000000" stroke="none" 
	d="
M187.121735,203.069321 
	C187.877426,202.427261 188.633118,201.785202 189.677139,201.065338 
	C190.312057,202.726410 190.658676,204.465286 191.005280,206.204178 
	C189.774109,205.900635 188.542923,205.597092 187.087097,204.788025 
	C186.948868,203.878113 187.035294,203.473709 187.121735,203.069321 
z"/>
<path fill="#040404" opacity="1.000000" stroke="none" 
	d="
M72.969200,189.011688 
	C69.624367,189.578720 68.723373,187.331467 68.018311,184.415298 
	C67.946007,184.055298 68.278069,183.706039 68.702568,183.727661 
	C70.433464,184.801971 71.739861,185.854675 73.016563,187.257233 
	C72.980980,188.075302 72.975090,188.543503 72.969200,189.011688 
z"/>
<path fill="#040404" opacity="1.000000" stroke="none" 
	d="
M62.046486,123.258888 
	C61.797836,125.935410 61.197037,128.755234 60.366081,131.876633 
	C58.360619,128.845383 58.376530,125.830612 62.046486,123.258888 
z"/>
<path fill="#040404" opacity="1.000000" stroke="none" 
	d="
M214.106903,100.849167 
	C212.905533,99.972290 211.974075,98.837303 211.003693,97.362885 
	C213.292099,97.074577 215.939468,96.819603 214.106903,100.849167 
z"/>
<path fill="#444444" opacity="1.000000" stroke="none" 
	d="
M80.082817,187.941132 
	C79.189751,188.423798 78.296684,188.906464 77.216072,189.622604 
	C76.237793,189.703217 75.447060,189.550369 74.648590,188.961441 
	C74.720909,187.964966 74.800987,187.404556 74.905655,186.873550 
	C74.930237,186.902939 74.866203,186.943329 75.224548,186.967957 
	C76.703568,186.666199 77.824249,186.339798 79.221710,186.134964 
	C79.693268,186.818054 79.888046,187.379593 80.082817,187.941132 
z"/>
<path fill="#9F9F9F" opacity="1.000000" stroke="none" 
	d="
M216.636765,156.194107 
	C217.331421,155.305878 218.026093,154.417633 218.863281,153.222733 
	C219.231064,154.225876 219.456329,155.535675 219.416138,156.943359 
	C218.576569,157.276077 218.002457,157.510925 217.143158,157.545227 
	C216.784210,156.961151 216.710495,156.577637 216.636765,156.194107 
z"/>
<path fill="#040404" opacity="1.000000" stroke="none" 
	d="
M132.021759,220.516327 
	C133.461853,220.251144 134.926941,220.353088 136.695068,220.667923 
	C135.349335,224.057236 133.698975,224.227829 132.021759,220.516327 
z"/>
<path fill="#040404" opacity="1.000000" stroke="none" 
	d="
M180.875977,65.758652 
	C179.426651,65.282646 177.837585,64.479401 176.049377,63.396420 
	C178.815567,61.066845 179.967041,62.845612 180.875977,65.758652 
z"/>
<path fill="#494949" opacity="1.000000" stroke="none" 
	d="
M83.960182,81.325607 
	C84.410484,80.985924 84.785988,80.882286 85.532013,81.214508 
	C85.968826,82.424896 86.035118,83.199448 86.052925,84.232239 
	C86.013031,84.665443 86.021622,84.840401 85.759674,85.103363 
	C85.227615,85.465485 84.966118,85.739616 84.494789,85.974388 
	C84.284966,85.935036 83.861359,85.881485 83.861359,85.881485 
	C83.849487,84.839142 83.837616,83.796799 83.727341,82.369888 
	C83.628937,81.985329 83.885376,81.561661 83.960182,81.325607 
z"/>
<path fill="#040404" opacity="1.000000" stroke="none" 
	d="
M184.876755,67.913925 
	C183.940292,67.785904 183.007050,67.310555 181.966492,66.527901 
	C182.866104,66.669266 183.873032,67.117928 184.876755,67.913925 
z"/>
<path fill="#040404" opacity="1.000000" stroke="none" 
	d="
M149.913147,58.573318 
	C149.331940,59.002724 148.662033,59.115871 147.652649,59.206448 
	C147.225388,58.562412 147.137619,57.940948 147.049835,57.319481 
	C147.974701,57.632008 148.899551,57.944534 149.913147,58.573318 
z"/>
<path fill="#040404" opacity="1.000000" stroke="none" 
	d="
M210.973694,96.684113 
	C210.217041,96.227402 209.457352,95.418640 208.820831,94.317551 
	C209.619568,94.794174 210.295105,95.563118 210.973694,96.684113 
z"/>
<path fill="#2C2C2C" opacity="1.000000" stroke="none" 
	d="
M220.205078,121.661980 
	C220.105011,122.536934 219.912521,123.092491 219.504028,123.847015 
	C218.854324,122.916191 218.420593,121.786385 218.062851,120.292404 
	C218.532318,119.960892 218.925781,119.993561 219.614105,120.028595 
	C219.976837,120.468178 220.044754,120.905388 220.205078,121.661980 
z"/>
<path fill="#040404" opacity="1.000000" stroke="none" 
	d="
M98.094116,70.002403 
	C100.408699,72.821632 97.786018,71.816338 96.330185,72.003304 
	C96.603668,71.314262 97.207382,70.671837 98.094116,70.002403 
z"/>
<path fill="#040404" opacity="1.000000" stroke="none" 
	d="
M113.952629,213.120636 
	C114.945122,213.099976 115.765411,213.286179 116.806122,213.705338 
	C115.944496,213.734711 114.862465,213.531113 113.952629,213.120636 
z"/>
<path fill="#040404" opacity="1.000000" stroke="none" 
	d="
M208.922607,93.728462 
	C208.162445,93.502930 207.353546,92.958900 206.751373,92.203720 
	C207.596680,92.465027 208.235275,92.937492 208.922607,93.728462 
z"/>
<path fill="#040404" opacity="1.000000" stroke="none" 
	d="
M128.924622,64.508911 
	C128.247849,64.823578 127.495041,64.846840 126.368088,64.812317 
	C126.945488,64.575523 127.897041,64.396515 128.924622,64.508911 
z"/>
<path fill="#040404" opacity="1.000000" stroke="none" 
	d="
M192.924774,75.779610 
	C191.994873,75.319649 191.077209,74.472961 189.981903,73.366463 
	C190.848511,73.868729 191.892761,74.630806 192.924774,75.779610 
z"/>
<path fill="#040404" opacity="1.000000" stroke="none" 
	d="
M164.884766,60.431023 
	C164.491989,60.570465 164.206314,60.595016 164.109283,60.490223 
	C164.377579,58.279465 165.079620,57.222630 166.885681,59.824848 
	C166.377243,60.212711 165.827393,60.252148 164.884766,60.431023 
z"/>
<path fill="#040404" opacity="1.000000" stroke="none" 
	d="
M64.598572,118.086411 
	C64.532967,118.984657 64.132240,119.970184 63.419067,121.088585 
	C63.492233,120.205536 63.877850,119.189613 64.598572,118.086411 
z"/>
<path fill="#040404" opacity="1.000000" stroke="none" 
	d="
M76.767441,191.275055 
	C77.547882,191.501129 78.210312,191.935547 78.941711,192.682800 
	C78.223595,192.491562 77.436508,191.987488 76.767441,191.275055 
z"/>
<path fill="#2C2C2C" opacity="1.000000" stroke="none" 
	d="
M162.719086,60.120262 
	C161.996368,60.403156 161.150696,60.406303 160.154602,60.191952 
	C160.868149,59.929806 161.732147,59.885162 162.719086,60.120262 
z"/>
<path fill="#A8A8A8" opacity="1.000000" stroke="none" 
	d="
M183.984985,208.498474 
	C183.929504,208.809921 183.444427,208.922684 183.195786,208.909332 
	C183.365173,207.923462 183.783203,206.950943 184.546005,205.955750 
	C184.607346,206.684372 184.323914,207.435699 183.984985,208.498474 
z"/>
<path fill="#A8A8A8" opacity="1.000000" stroke="none" 
	d="
M186.771820,203.076675 
	C187.035294,203.473709 186.948868,203.878113 186.798920,204.593353 
	C186.310654,205.227325 185.885925,205.550446 185.190277,205.877960 
	C185.420212,204.949570 185.921051,204.016800 186.771820,203.076675 
z"/>
<path fill="#212121" opacity="1.000000" stroke="none" 
	d="
M74.881065,186.844162 
	C74.800987,187.404556 74.720909,187.964966 74.448166,188.732361 
	C74.041611,188.958328 73.827728,188.977264 73.291519,189.003937 
	C72.975090,188.543503 72.980980,188.075302 73.323051,187.284729 
	C74.066513,186.922943 74.473785,186.883545 74.881065,186.844162 
z"/>
<path fill="#040404" opacity="1.000000" stroke="none" 
	d="
M111.061920,210.315857 
	C111.642525,210.449570 112.285507,210.897919 113.012268,211.649765 
	C112.438805,211.512344 111.781548,211.071426 111.061920,210.315857 
z"/>
<path fill="#040404" opacity="1.000000" stroke="none" 
	d="
M105.952682,65.895973 
	C106.000000,66.000000 105.629890,65.775925 105.629890,65.775925 
	C105.629890,65.775925 105.905365,65.791946 105.952682,65.895973 
z"/>
<path fill="#040404" opacity="1.000000" stroke="none" 
	d="
M203.596481,189.499283 
	C203.757584,189.665680 203.893158,189.885162 204.028732,190.104645 
	C203.914124,190.045395 203.799500,189.986160 203.573746,189.762772 
	C203.462601,189.598633 203.570938,189.552368 203.596481,189.499283 
z"/>
<path fill="#020202" opacity="1.000000" stroke="none" 
	d="
M216.288727,156.044250 
	C216.710495,156.577637 216.784210,156.961151 216.846771,157.637497 
	C214.918976,159.726181 213.002350,161.522049 210.812012,163.900543 
	C209.172455,166.258850 207.806595,168.034546 206.269928,169.852020 
	C205.878830,170.033142 205.775177,170.232971 205.489227,170.665161 
	C200.910904,175.157028 196.631485,179.477020 192.352066,183.796997 
	C191.996185,183.859634 191.640289,183.922272 190.761078,184.238098 
	C187.086472,185.224808 183.197205,184.566360 181.947693,188.886703 
	C174.306305,197.962570 167.194519,207.657608 154.703491,211.460464 
	C154.009674,211.046432 153.871994,210.885696 153.734299,210.724960 
	C152.427200,210.117508 151.073608,208.913864 149.821472,209.011475 
	C145.626862,209.338470 141.483124,210.294708 137.289459,210.668289 
	C135.451263,210.832031 133.539474,210.169815 131.345215,209.862762 
	C127.104179,208.094177 123.240417,206.179810 119.219322,204.690109 
	C117.882637,204.194901 116.142151,204.789627 114.321571,204.566071 
	C109.038078,201.497269 104.019295,198.748444 98.792336,195.740845 
	C95.038979,193.353363 91.493797,191.224655 87.948608,189.095963 
	C86.853142,188.070938 85.757675,187.045914 84.034088,185.873657 
	C82.884239,184.838028 82.362495,183.949600 81.862282,182.676636 
	C80.278709,178.466980 78.673615,174.641907 77.193451,170.498718 
	C76.686378,168.202011 76.529358,165.832397 75.303185,164.342911 
	C73.740700,162.444885 71.313522,161.258713 69.259079,159.765686 
	C64.512543,153.072311 63.197033,145.703003 65.015373,136.977539 
	C67.105392,130.281693 69.099144,124.343590 71.432571,118.316940 
	C74.463181,114.800972 77.154114,111.373543 80.139648,107.783653 
	C82.650948,105.495338 84.867645,103.369469 87.331009,101.195923 
	C87.747734,100.879829 87.917786,100.611427 88.325073,100.240799 
	C88.763184,99.869286 88.964050,99.599998 89.486099,99.213600 
	C94.293114,94.441277 98.778954,89.786064 103.569855,84.989662 
	C108.900642,81.222229 113.926369,77.595985 118.952095,73.969742 
	C120.497185,73.101891 122.042274,72.234039 123.792198,71.092133 
	C130.183182,70.784004 136.377228,70.548782 142.552582,70.790565 
	C146.315125,70.937889 150.048889,71.820198 154.020370,72.755341 
	C154.428864,73.029961 154.612564,72.921616 154.796265,72.813271 
	C154.971832,72.782860 155.147400,72.752457 155.589020,72.696701 
	C158.378906,73.750175 160.918167,74.794823 163.418900,75.924789 
	C164.408005,76.371727 165.423981,76.878082 166.235840,77.579468 
	C172.425659,82.926941 178.329132,88.639366 184.795929,93.622864 
	C190.642441,98.128349 197.088226,101.856224 203.740021,106.258423 
	C204.746368,107.103287 205.282410,107.616722 205.899292,108.432076 
	C206.866806,109.542511 207.753494,110.351028 208.774750,111.443161 
	C209.547485,112.540016 210.185638,113.353249 210.799622,114.188110 
	C210.775452,114.209740 210.792297,114.272392 210.792297,114.272392 
	C213.629196,118.897789 214.431183,123.941452 214.332550,129.310471 
	C214.296646,131.264923 215.411499,133.240509 215.978424,135.604736 
	C215.950562,142.633469 215.945618,149.263916 216.288727,156.044250 
z"/>
<path fill="#9F9F9F" opacity="1.000000" stroke="none" 
	d="
M133.937775,213.385925 
	C134.002609,213.936905 134.005386,214.159805 134.003998,214.717072 
	C128.820847,214.176682 123.825378,212.897476 119.776505,209.532089 
	C119.945633,209.047760 120.114754,208.563446 120.283875,208.079117 
	C122.633530,208.716446 124.983192,209.353775 127.717621,210.084824 
	C130.026825,211.138321 131.951263,212.098068 133.937775,213.385925 
z"/>
<path fill="#8C8C8C" opacity="1.000000" stroke="none" 
	d="
M185.069061,190.249542 
	C185.981506,190.044052 186.893967,189.838577 188.155243,189.960220 
	C188.236176,191.051483 187.968262,191.815628 187.700348,192.579758 
	C185.858978,194.331757 184.017593,196.083755 182.176208,197.835754 
	C181.818130,197.631119 181.460052,197.426468 181.101974,197.221832 
	C181.992172,195.364594 182.882355,193.507355 184.126129,191.253906 
	C184.739777,190.716629 184.936234,190.513901 185.069061,190.249542 
z"/>
<path fill="#DBDBDB" opacity="1.000000" stroke="none" 
	d="
M185.062714,189.868042 
	C184.936234,190.513901 184.739777,190.716629 184.286285,190.950897 
	C183.472473,190.510208 182.852112,189.976303 182.089722,189.164551 
	C183.197205,184.566360 187.086472,185.224808 190.623749,184.484726 
	C189.025284,186.147629 187.040833,187.817093 185.062714,189.868042 
z"/>
<path fill="#DBDBDB" opacity="1.000000" stroke="none" 
	d="
M187.883728,192.802948 
	C187.968262,191.815628 188.236176,191.051483 188.617050,189.885010 
	C190.797974,187.058594 191.537216,188.859009 192.148376,190.801224 
	C190.690887,191.674576 189.378998,192.350342 187.883728,192.802948 
z"/>
<path fill="#020202" opacity="1.000000" stroke="none" 
	d="
M149.112213,211.998322 
	C150.303696,211.694397 151.134750,211.489975 151.965790,211.285568 
	C151.915955,211.791794 151.866135,212.298004 151.816315,212.804230 
	C150.794785,212.568771 149.773270,212.333313 149.112213,211.998322 
z"/>
<path fill="#DBDBDB" opacity="1.000000" stroke="none" 
	d="
M190.746506,195.175797 
	C190.951614,195.452789 190.969879,195.893814 190.992081,196.666107 
	C190.850555,196.444870 190.705109,195.892349 190.746506,195.175797 
z"/>
<path fill="#020202" opacity="1.000000" stroke="none" 
	d="
M154.342499,211.457535 
	C153.979340,211.836243 153.421036,211.964569 152.862732,212.092896 
	C152.877930,211.689331 152.893127,211.285782 153.321320,210.803589 
	C153.871994,210.885696 154.009674,211.046432 154.342499,211.457535 
z"/>
<path fill="#DDDDDD" opacity="1.000000" stroke="none" 
	d="
M177.380096,68.770905 
	C179.063065,69.954391 180.746048,71.137886 182.293671,72.705978 
	C181.917389,73.467819 181.404480,74.112907 181.474472,74.183975 
	C185.379288,78.149086 189.286072,82.116096 193.345093,85.920258 
	C193.811829,86.357697 195.154709,85.860275 196.091370,85.796310 
	C196.091370,85.796318 196.147278,85.863052 196.219452,85.960915 
	C196.291626,86.058777 196.733566,86.235863 196.768890,86.642914 
	C197.024002,88.367363 197.243820,89.684769 197.770599,91.213875 
	C198.718842,91.636185 199.360107,91.846779 199.998611,92.026909 
	C199.995850,91.996437 199.939743,92.020859 199.742737,92.270668 
	C199.682922,92.682220 199.820129,92.843956 200.019989,93.215187 
	C200.082642,93.424690 200.169235,93.853371 199.985703,94.071579 
	C199.690216,94.443413 199.578247,94.597038 199.466293,94.750656 
	C194.422943,91.367447 189.379578,87.984245 184.136108,83.978714 
	C182.740982,82.540657 181.545975,81.724907 180.350983,80.909157 
	C180.350983,80.909157 179.989914,80.742165 179.878662,80.205002 
	C179.039749,79.285492 178.312088,78.903152 177.584442,78.520805 
	C177.584442,78.520805 177.533951,78.474098 177.648193,78.030502 
	C177.523499,75.401093 177.284561,73.215279 177.104630,70.653877 
	C177.235794,69.775833 177.307953,69.273369 177.380096,68.770905 
z"/>
<path fill="#A8A8A8" opacity="1.000000" stroke="none" 
	d="
M177.335114,68.786194 
	C177.307953,69.273369 177.235794,69.775833 176.745392,70.663185 
	C174.884583,71.532082 172.093063,68.623238 172.091705,72.732048 
	C168.652084,71.139221 165.212479,69.546402 161.390900,67.595627 
	C161.009369,66.864738 161.009796,66.491798 161.396545,66.143448 
	C164.371399,66.791489 166.959961,67.414932 169.551666,67.709183 
	C170.063797,66.635445 170.572769,65.890900 171.081741,65.146347 
	C171.081741,65.146347 171.356613,65.394478 171.362640,65.877518 
	C172.969559,67.187683 174.570465,68.014816 176.442352,68.869278 
	C176.894943,68.894722 177.076523,68.892845 177.258102,68.890968 
	C177.258102,68.890968 177.290115,68.801483 177.335114,68.786194 
z"/>
<path fill="#8C8C8C" opacity="1.000000" stroke="none" 
	d="
M172.260422,81.808350 
	C171.115494,80.292282 170.226959,79.017845 169.338425,77.743408 
	C169.736252,77.331291 170.134094,76.919174 170.531921,76.507050 
	C173.685547,79.241173 176.839157,81.975296 179.992767,84.709419 
	C179.589371,85.267632 179.185989,85.825836 178.782593,86.384048 
	C176.694000,84.939362 174.605408,83.494675 172.260422,81.808350 
z"/>
<path fill="#BFBFBF" opacity="1.000000" stroke="none" 
	d="
M172.211365,73.051170 
	C172.093063,68.623238 174.884583,71.532082 176.686371,71.038773 
	C177.284561,73.215279 177.523499,75.401093 177.622742,78.007362 
	C175.765701,76.741974 174.048370,75.056129 172.211365,73.051170 
z"/>
<path fill="#494949" opacity="1.000000" stroke="none" 
	d="
M205.818466,108.130157 
	C205.282410,107.616722 204.746368,107.103287 204.071777,106.347885 
	C204.407379,104.787354 204.881500,103.468788 206.002960,102.189041 
	C207.454269,102.810364 208.258240,103.392853 209.062210,103.975342 
	C209.062210,103.975342 209.001862,103.992844 208.980576,104.297554 
	C209.307693,105.418243 209.656097,106.234222 210.004486,107.050201 
	C210.004501,107.050194 209.973236,106.989311 209.856598,107.139565 
	C209.513626,107.493317 209.355835,107.740532 209.136169,108.017853 
	C209.005814,108.004234 208.747787,107.960518 208.383286,107.984589 
	C207.285339,108.049149 206.551910,108.089653 205.818466,108.130157 
z"/>
<path fill="#444444" opacity="1.000000" stroke="none" 
	d="
M153.884659,62.535980 
	C154.940903,62.540554 155.940140,62.833344 156.855499,63.606995 
	C156.519043,64.421814 156.266479,64.755768 155.832367,65.348770 
	C154.832169,65.755043 154.013504,65.902267 153.194855,66.049500 
	C153.405792,64.974403 153.616714,63.899303 153.884659,62.535980 
z"/>
<path fill="#9F9F9F" opacity="1.000000" stroke="none" 
	d="
M153.418854,66.339981 
	C154.013504,65.902267 154.832169,65.755043 156.199097,65.334305 
	C158.168320,65.413483 159.589279,65.766167 161.010239,66.118851 
	C161.009796,66.491798 161.009369,66.864738 161.014252,67.517334 
	C158.560638,67.408142 156.101746,67.019302 153.418854,66.339981 
z"/>
<path fill="#9F9F9F" opacity="1.000000" stroke="none" 
	d="
M209.201965,103.587936 
	C208.258240,103.392853 207.454269,102.810364 206.364120,102.108917 
	C205.612122,101.340866 205.146317,100.691765 204.686295,99.657585 
	C204.692078,99.272499 205.015747,98.967278 205.190155,98.871155 
	C205.364563,98.775032 205.752487,98.684898 206.065002,98.879105 
	C207.270279,99.385490 208.163040,99.697670 209.055801,100.009850 
	C209.151093,101.073410 209.246399,102.136963 209.201965,103.587936 
z"/>
<path fill="#444444" opacity="1.000000" stroke="none" 
	d="
M149.974869,67.673157 
	C148.394272,68.021286 146.802734,68.021286 144.668228,68.021286 
	C146.036453,66.939247 146.878845,66.273064 147.843201,65.312790 
	C148.631424,65.787468 149.297684,66.556244 149.974869,67.673157 
z"/>
<path fill="#BFBFBF" opacity="1.000000" stroke="none" 
	d="
M180.412109,81.213943 
	C181.545975,81.724907 182.740982,82.540657 183.959732,83.694908 
	C182.813416,83.195183 181.643326,82.356956 180.412109,81.213943 
z"/>
<path fill="#BFBFBF" opacity="1.000000" stroke="none" 
	d="
M177.712494,78.794754 
	C178.312088,78.903152 179.039749,79.285492 179.775589,80.034866 
	C179.136032,79.957512 178.488281,79.513107 177.712494,78.794754 
z"/>
<path fill="#DDDDDD" opacity="1.000000" stroke="none" 
	d="
M203.952438,98.891754 
	C203.577866,98.562950 203.203308,98.234146 202.802063,97.576851 
	C202.775391,97.248360 202.971542,97.029213 203.263611,97.080124 
	C203.706360,97.258789 203.857056,97.386528 203.961258,97.553886 
	C203.914780,97.593513 203.875366,97.709145 203.858109,98.007172 
	C203.878052,98.500725 203.915253,98.696236 203.952438,98.891754 
z"/>
<path fill="#DDDDDD" opacity="1.000000" stroke="none" 
	d="
M202.678162,97.358673 
	C202.296204,97.284294 202.011490,97.099617 201.728455,96.579742 
	C201.730118,96.244553 202.060394,95.940926 202.309097,96.023590 
	C202.695709,96.413902 202.833633,96.721558 202.971542,97.029213 
	C202.971542,97.029213 202.775391,97.248360 202.678162,97.358673 
z"/>
<path fill="#9F9F9F" opacity="1.000000" stroke="none" 
	d="
M203.998199,99.083817 
	C203.915253,98.696236 203.878052,98.500725 204.071304,98.198753 
	C204.539749,98.383957 204.777756,98.675613 205.015747,98.967278 
	C205.015747,98.967278 204.692078,99.272499 204.513428,99.407730 
	C204.334778,99.542953 204.043945,99.275871 203.998199,99.083817 
z"/>
<path fill="#DDDDDD" opacity="1.000000" stroke="none" 
	d="
M201.558258,96.388710 
	C201.094894,96.383774 200.841568,96.185822 200.678497,95.585182 
	C200.730576,95.231346 201.086472,94.916710 201.325714,95.002075 
	C201.730118,95.371933 201.895248,95.656433 202.060394,95.940926 
	C202.060394,95.940926 201.730118,96.244553 201.558258,96.388710 
z"/>
<path fill="#DDDDDD" opacity="1.000000" stroke="none" 
	d="
M200.546738,95.381729 
	C200.093643,95.453278 199.868103,95.307030 199.576294,94.922028 
	C199.578247,94.597038 199.690216,94.443413 200.209946,94.179413 
	C200.907074,94.278000 201.063324,94.560555 201.086472,94.916710 
	C201.086472,94.916710 200.730576,95.231346 200.546738,95.381729 
z"/>
<path fill="#696969" opacity="1.000000" stroke="none" 
	d="
M195.985626,85.473969 
	C195.154709,85.860275 193.811829,86.357697 193.345093,85.920258 
	C189.286072,82.116096 185.379288,78.149086 181.474472,74.183975 
	C181.404480,74.112907 181.917389,73.467819 182.504974,73.014793 
	C189.187759,74.883369 192.628418,79.916580 195.985626,85.473969 
z"/>
<path fill="#C6C6C6" opacity="1.000000" stroke="none" 
	d="
M197.463638,91.002167 
	C197.243820,89.684769 197.024002,88.367363 196.834198,86.573463 
	C196.864197,86.096962 196.907730,85.911308 196.907730,85.911308 
	C198.511154,87.572578 200.114578,89.233849 201.595947,91.325928 
	C201.294739,91.858826 201.115570,91.960930 200.688995,92.011063 
	C200.274323,91.979683 200.107025,92.000267 199.939743,92.020859 
	C199.939743,92.020859 199.995850,91.996437 199.843781,91.624931 
	C198.949036,91.169670 198.206329,91.085922 197.463638,91.002167 
z"/>
<path fill="#BFBFBF" opacity="1.000000" stroke="none" 
	d="
M170.938171,64.944542 
	C170.572769,65.890900 170.063797,66.635445 169.648193,67.298531 
	C167.846191,66.443726 165.950821,65.670380 164.055435,64.897041 
	C165.248688,64.488647 166.441940,64.080254 168.025131,63.562756 
	C169.208252,63.883347 170.001419,64.313042 170.938171,64.944542 
z"/>
<path fill="#BFBFBF" opacity="1.000000" stroke="none" 
	d="
M176.171356,68.841949 
	C174.570465,68.014816 172.969559,67.187683 171.264160,66.034309 
	C173.050186,66.215149 174.940704,66.722229 176.825272,67.665520 
	C176.603333,68.348473 176.387344,68.595207 176.171356,68.841949 
z"/>
<path fill="#BFBFBF" opacity="1.000000" stroke="none" 
	d="
M205.190155,98.871155 
	C204.777756,98.675613 204.539749,98.383957 204.088562,97.900726 
	C203.875366,97.709145 203.914780,97.593513 204.015823,97.180054 
	C204.041809,96.273178 203.966751,95.779755 203.929443,94.886688 
	C203.989929,94.220406 204.012665,93.953758 204.035385,93.687119 
	C204.710449,94.435936 205.385529,95.184746 206.105270,96.580765 
	C206.017441,97.713608 205.884964,98.199257 205.752487,98.684898 
	C205.752487,98.684898 205.364563,98.775032 205.190155,98.871155 
z"/>
<path fill="#9F9F9F" opacity="1.000000" stroke="none" 
	d="
M210.376556,106.981483 
	C209.656097,106.234222 209.307693,105.418243 208.994476,104.269379 
	C209.984970,104.134857 210.940277,104.333206 211.895569,104.531555 
	C211.513260,105.325294 211.130936,106.119034 210.376556,106.981483 
z"/>
<path fill="#A8A8A8" opacity="1.000000" stroke="none" 
	d="
M206.065002,98.879105 
	C205.884964,98.199257 206.017441,97.713608 206.234482,96.857086 
	C207.141998,97.465645 207.964966,98.445068 208.921875,99.717171 
	C208.163040,99.697670 207.270279,99.385490 206.065002,98.879105 
z"/>
<path fill="#727272" opacity="1.000000" stroke="none" 
	d="
M211.229202,109.056786 
	C211.676712,109.367348 212.124237,109.677910 212.559601,110.286110 
	C212.547455,110.583748 212.210754,110.839935 211.833008,110.873367 
	C211.455276,110.906792 211.016571,110.739433 210.985977,110.391113 
	C210.831146,109.584106 210.706909,109.125412 210.765991,108.728287 
	C210.949326,108.789856 211.229202,109.056786 211.229202,109.056786 
z"/>
<path fill="#696969" opacity="1.000000" stroke="none" 
	d="
M196.745453,85.826454 
	C196.907730,85.911308 196.864197,86.096962 196.798889,86.166412 
	C196.733566,86.235863 196.291626,86.058777 196.259613,85.944115 
	C196.227585,85.829453 196.583160,85.741600 196.745453,85.826454 
z"/>
<path fill="#C6C6C6" opacity="1.000000" stroke="none" 
	d="
M201.759247,91.637253 
	C202.328308,91.644417 202.569550,91.827141 202.586823,92.420158 
	C202.237549,92.886093 202.069794,92.997818 201.715088,93.065613 
	C201.528122,93.021698 201.150055,92.952606 201.096634,92.730217 
	C201.043213,92.507828 200.936386,92.063042 200.936386,92.063042 
	C201.115570,91.960930 201.294739,91.858826 201.759247,91.637253 
z"/>
<path fill="#9F9F9F" opacity="1.000000" stroke="none" 
	d="
M209.972290,108.026634 
	C210.286484,108.217705 210.600693,108.408775 211.072052,108.828308 
	C211.229202,109.056786 210.949326,108.789856 210.668091,108.632072 
	C210.247375,108.329865 210.113632,108.180313 209.990128,108.016495 
	C209.994659,108.007347 209.972290,108.026634 209.972290,108.026634 
z"/>
<path fill="#DDDDDD" opacity="1.000000" stroke="none" 
	d="
M176.442352,68.869278 
	C176.387344,68.595207 176.603333,68.348473 177.040344,67.976547 
	C177.400070,68.025826 177.538803,68.200279 177.467819,68.632858 
	C177.076523,68.892845 176.894943,68.894722 176.442352,68.869278 
z"/>
<path fill="#9F9F9F" opacity="1.000000" stroke="none" 
	d="
M209.266541,108.031471 
	C209.355835,107.740532 209.513626,107.493317 209.886078,107.122177 
	C210.047256,107.134560 210.062302,107.314583 210.024826,107.760620 
	C209.972290,108.026634 209.994659,108.007347 209.810181,108.002960 
	C209.625702,107.998566 209.266541,108.031471 209.266541,108.031471 
z"/>
<path fill="#C6C6C6" opacity="1.000000" stroke="none" 
	d="
M202.672318,92.632553 
	C203.226898,92.651245 203.484253,92.850739 203.542236,93.444366 
	C203.203445,93.911339 203.033844,94.023170 202.648270,94.023094 
	C202.171387,93.699631 201.994644,93.432411 201.902039,93.109535 
	C202.069794,92.997818 202.237549,92.886093 202.672318,92.632553 
z"/>
<path fill="#C6C6C6" opacity="1.000000" stroke="none" 
	d="
M204.019348,93.639435 
	C204.012665,93.953758 203.989929,94.220406 203.707397,94.743042 
	C203.253143,94.711014 203.058701,94.423004 202.864258,94.134995 
	C203.033844,94.023170 203.203445,93.911339 203.647766,93.665695 
	C203.922455,93.531868 204.003296,93.591759 204.019348,93.639435 
z"/>
<path fill="#DBDBDB" opacity="1.000000" stroke="none" 
	d="
M118.838715,73.640366 
	C113.926369,77.595985 108.900642,81.222229 103.160919,84.962021 
	C101.627785,85.046684 100.808640,85.017799 99.994415,84.994125 
	C99.999329,84.999329 100.008858,85.006165 99.960739,84.668594 
	C98.739777,84.295876 96.982750,83.753014 96.495483,84.313675 
	C94.414383,86.708252 92.708229,89.428696 90.596344,92.055145 
	C89.885796,92.366356 89.444183,92.652679 88.808411,93.158554 
	C88.746872,94.030266 88.879501,94.682442 89.162148,95.480553 
	C89.533913,95.802139 89.779037,95.934456 89.896645,96.339706 
	C89.552124,97.547531 89.358513,98.439117 89.164909,99.330704 
	C88.964050,99.599998 88.763184,99.869286 88.281265,99.890945 
	C87.521393,98.579430 87.042549,97.515541 86.570244,96.466164 
	C84.476837,97.795448 82.743782,98.895927 81.010727,99.996399 
	C80.869560,99.241058 80.728394,98.485703 80.984337,97.278076 
	C82.641090,95.216255 83.900742,93.606697 85.494415,91.983490 
	C86.469406,91.452682 87.110352,90.935532 87.751305,90.418373 
	C87.218147,89.947487 86.684990,89.476593 86.088562,88.675369 
	C86.015297,87.896782 86.005295,87.448524 86.373466,87.000854 
	C87.946564,86.861237 89.141479,86.721046 90.336403,86.580856 
	C90.365631,86.312263 90.394859,86.043678 90.424088,85.775093 
	C89.654343,85.524536 88.884598,85.273972 87.945282,84.775024 
	C87.217621,84.342422 86.659515,84.158203 86.101418,83.973991 
	C86.035118,83.199448 85.968826,82.424896 85.819199,81.269783 
	C86.561646,80.183823 87.387428,79.478432 88.611420,79.028656 
	C89.759979,79.543457 90.510338,79.802658 91.260704,80.061859 
	C91.692497,78.746902 92.124298,77.431953 92.556099,76.116997 
	C98.697136,74.784950 104.838181,73.452904 111.369644,72.292747 
	C111.760078,72.464645 111.774872,72.837837 111.774872,72.837837 
	C111.774872,72.837837 111.987602,72.979553 111.557739,73.003242 
	C107.737045,75.549759 104.346199,78.072578 100.955360,80.595398 
	C101.273613,81.035088 101.591858,81.474770 101.910110,81.914459 
	C105.720543,79.353539 109.530983,76.792625 113.341415,74.231712 
	C115.136055,73.924805 116.930687,73.617897 118.838715,73.640366 
z"/>
<path fill="#9F9F9F" opacity="1.000000" stroke="none" 
	d="
M71.092880,118.405487 
	C69.099144,124.343590 67.105392,130.281693 64.985367,136.569489 
	C64.399902,136.374893 63.940716,135.830597 63.252045,135.145569 
	C65.116043,128.777145 67.209518,122.549431 69.882233,116.359016 
	C70.671936,117.066040 70.882408,117.735764 71.092880,118.405487 
z"/>
<path fill="#BFBFBF" opacity="1.000000" stroke="none" 
	d="
M71.432564,118.316940 
	C70.882408,117.735764 70.671936,117.066040 70.181656,116.180672 
	C72.412086,112.061264 74.922310,108.157494 77.947876,104.323723 
	C78.923836,105.577843 79.384438,106.761978 79.845039,107.946106 
	C77.154114,111.373543 74.463181,114.800972 71.432564,118.316940 
z"/>
<path fill="#696969" opacity="1.000000" stroke="none" 
	d="
M85.160385,91.997147 
	C83.900742,93.606697 82.641090,95.216255 81.038742,96.894974 
	C80.035576,96.725082 79.375092,96.486023 78.453110,96.195755 
	C78.955147,93.850159 79.718681,91.555763 80.181602,89.053185 
	C80.959610,87.898880 82.038239,86.952766 83.489105,85.944061 
	C83.861359,85.881485 84.284966,85.935036 84.700439,86.151016 
	C85.409035,86.578079 85.702164,86.789177 85.995293,87.000275 
	C86.005295,87.448524 86.015297,87.896782 86.026428,88.992706 
	C85.738495,90.425964 85.449440,91.211555 85.160385,91.997147 
M82.450119,88.125412 
	C82.386002,88.491356 82.321884,88.857292 82.257774,89.223236 
	C82.608093,88.921753 82.958412,88.620262 83.694992,88.047836 
	C83.648949,87.793663 83.602905,87.539482 83.556862,87.285309 
	C83.350067,87.499382 83.143280,87.713463 82.450119,88.125412 
z"/>
<path fill="#DDDDDD" opacity="1.000000" stroke="none" 
	d="
M80.139648,107.783653 
	C79.384438,106.761978 78.923836,105.577843 78.248428,104.202461 
	C78.028343,103.668922 78.137245,103.367935 78.951736,103.028519 
	C81.182198,102.091972 82.760620,101.058640 84.489990,100.465042 
	C85.183937,100.226860 86.209633,100.955177 87.084335,101.243591 
	C84.867645,103.369469 82.650948,105.495338 80.139648,107.783653 
z"/>
<path fill="#BFBFBF" opacity="1.000000" stroke="none" 
	d="
M87.331009,101.195915 
	C86.209633,100.955177 85.183937,100.226860 84.489990,100.465042 
	C82.760620,101.058640 81.182198,102.091972 79.168449,102.915657 
	C79.464386,102.115593 80.135048,101.348656 80.908218,100.289062 
	C82.743782,98.895927 84.476837,97.795448 86.570244,96.466164 
	C87.042549,97.515541 87.521393,98.579430 88.044037,99.993164 
	C87.917786,100.611427 87.747734,100.879829 87.331009,101.195915 
z"/>
<path fill="#353535" opacity="1.000000" stroke="none" 
	d="
M154.680954,72.790672 
	C154.612564,72.921616 154.428864,73.029961 154.287933,72.950699 
	C154.330704,72.763100 154.565643,72.768074 154.680954,72.790672 
z"/>
<path fill="#2C2C2C" opacity="1.000000" stroke="none" 
	d="
M219.117188,125.257225 
	C219.765121,125.777824 220.353790,126.640610 220.876068,127.852386 
	C220.225754,127.334045 219.641846,126.466728 219.117188,125.257225 
z"/>
<path fill="#A8A8A8" opacity="1.000000" stroke="none" 
	d="
M211.016571,110.739433 
	C211.016571,110.739433 211.455276,110.906792 211.667923,111.005646 
	C211.728592,112.142044 211.576614,113.179596 211.108475,114.244766 
	C210.792297,114.272392 210.775452,114.209740 210.843872,113.763016 
	C210.947052,112.457336 210.981812,111.598381 211.016571,110.739433 
z"/>
<path fill="#9F9F9F" opacity="1.000000" stroke="none" 
	d="
M99.000504,195.999603 
	C104.019295,198.748444 109.038078,201.497269 113.994881,204.615997 
	C113.932892,204.985901 113.475227,205.044159 113.253555,205.108002 
	C108.231468,202.887695 103.431038,200.603546 98.346199,197.848053 
	C98.374695,196.917664 98.687599,196.458633 99.000504,195.999603 
z"/>
<path fill="#606060" opacity="1.000000" stroke="none" 
	d="
M113.032867,74.055183 
	C109.530983,76.792625 105.720543,79.353539 101.910110,81.914459 
	C101.591858,81.474770 101.273613,81.035088 100.955360,80.595398 
	C104.346199,78.072578 107.737045,75.549759 111.450127,72.930252 
	C112.089691,73.181931 112.407005,73.530289 113.032867,74.055183 
z"/>
<path fill="#DDDDDD" opacity="1.000000" stroke="none" 
	d="
M92.224876,76.215408 
	C92.124298,77.431953 91.692497,78.746902 91.260704,80.061859 
	C90.510338,79.802658 89.759979,79.543457 88.931961,78.947311 
	C89.138542,78.095146 89.422775,77.579933 89.813232,76.774857 
	C90.577522,76.427933 91.235588,76.370872 92.224876,76.215408 
z"/>
<path fill="#606060" opacity="1.000000" stroke="none" 
	d="
M112.902008,71.895798 
	C113.274734,71.764908 113.647453,71.634018 114.020180,71.503136 
	C113.832077,71.667877 113.643974,71.832611 113.217972,71.989609 
	C112.980080,71.981857 112.902008,71.895798 112.902008,71.895798 
z"/>
<path fill="#606060" opacity="1.000000" stroke="none" 
	d="
M112.034653,72.801682 
	C111.774872,72.837837 111.760078,72.464645 111.788696,72.280220 
	C111.996399,72.050819 112.175476,72.005852 112.628281,71.928337 
	C112.902008,71.895798 112.980080,71.981857 113.018250,72.027100 
	C112.802437,72.303398 112.548439,72.534454 112.034653,72.801682 
z"/>
<path fill="#DBDBDB" opacity="1.000000" stroke="none" 
	d="
M192.788269,183.844421 
	C196.631485,179.477020 200.910904,175.157028 205.639343,171.027069 
	C205.863724,172.436417 205.801819,173.716187 205.376465,174.860916 
	C204.728363,176.605072 203.828705,178.255737 203.035858,179.946106 
	C203.035858,179.946106 202.989807,179.992218 202.686081,180.036514 
	C201.930054,180.381775 201.477768,180.682755 201.025482,180.983734 
	C201.025467,180.983719 201.004333,180.998505 200.994324,181.008240 
	C198.397720,181.975922 195.811096,182.933868 192.788269,183.844421 
z"/>
<path fill="#444444" opacity="1.000000" stroke="none" 
	d="
M69.163567,160.098083 
	C71.313522,161.258713 73.740700,162.444885 75.303185,164.342911 
	C76.529358,165.832397 76.686378,168.202011 77.119186,170.640900 
	C76.919991,171.101166 76.750969,171.373260 76.554840,171.126740 
	C75.843086,170.762177 75.327461,170.644104 74.477501,170.735153 
	C73.096329,169.934479 72.049484,168.924698 70.933174,167.614502 
	C70.248428,166.979691 69.636482,166.638123 69.002243,166.344742 
	C68.982635,166.335678 68.575455,167.025162 68.612442,167.054276 
	C69.067497,167.412521 69.571724,167.708298 70.017395,168.408737 
	C71.219933,171.649551 72.468323,174.501831 73.717476,177.686783 
	C74.410789,179.382523 75.103333,180.745590 75.597580,182.248825 
	C75.182724,182.632065 74.995255,182.895813 74.555222,183.023560 
	C73.183990,181.575851 72.094414,180.284836 70.851639,178.718643 
	C70.160973,178.264023 69.623497,178.084595 69.128815,177.918701 
	C69.171616,177.932220 69.230011,177.864059 69.202858,177.469040 
	C67.434975,171.071075 65.694244,165.068115 63.953514,159.065170 
	C64.323639,158.786530 64.693764,158.507889 65.063889,158.229233 
	C65.776886,159.873703 66.489891,161.518173 67.447456,163.726685 
	C68.146355,162.305161 68.607201,161.367813 69.163567,160.098083 
M69.732735,164.453491 
	C69.922401,164.185425 70.112068,163.917343 70.301735,163.649277 
	C70.019623,163.821442 69.737511,163.993607 69.732735,164.453491 
z"/>
<path fill="#DDDDDD" opacity="1.000000" stroke="none" 
	d="
M63.786507,158.974701 
	C65.694244,165.068115 67.434975,171.071075 68.857452,177.604279 
	C67.035271,177.418793 65.531326,176.703064 64.027390,175.987320 
	C63.718212,175.193848 63.409031,174.400391 63.129143,173.286163 
	C63.384567,171.647934 63.869984,170.313690 63.785969,169.016312 
	C63.573349,165.733047 63.104954,162.466370 63.033562,158.916779 
	C63.328114,158.640518 63.619503,158.884232 63.786507,158.974701 
z"/>
<path fill="#DBDBDB" opacity="1.000000" stroke="none" 
	d="
M206.440765,169.810242 
	C207.806595,168.034546 209.172455,166.258850 210.756866,164.235443 
	C212.228958,164.122421 213.482452,164.257141 215.537323,164.477966 
	C212.990311,167.552185 215.564117,172.617905 209.586761,172.880096 
	C208.220169,171.613831 207.330460,170.712036 206.440765,169.810242 
z"/>
<path fill="#DDDDDD" opacity="1.000000" stroke="none" 
	d="
M206.269928,169.852020 
	C207.330460,170.712036 208.220169,171.613831 209.214432,172.932175 
	C209.466507,175.104736 209.614029,176.860718 209.559982,178.907227 
	C207.293808,177.528275 205.292999,176.664322 203.316620,179.800049 
	C203.828705,178.255737 204.728363,176.605072 205.376465,174.860916 
	C205.801819,173.716187 205.863724,172.436417 205.938263,170.855194 
	C205.775177,170.232971 205.878830,170.033142 206.269928,169.852020 
z"/>
<path fill="#727272" opacity="1.000000" stroke="none" 
	d="
M98.792328,195.740845 
	C98.687599,196.458633 98.374695,196.917664 98.049988,197.663254 
	C97.464752,197.876175 96.891304,197.802551 96.051102,197.648468 
	C95.602859,197.495743 95.421379,197.423508 94.965225,197.250793 
	C92.175690,195.623428 89.705856,194.015121 87.133118,192.592987 
	C84.643982,191.217056 85.586533,190.249893 87.649292,189.171021 
	C91.493797,191.224655 95.038979,193.353363 98.792328,195.740845 
z"/>
<path fill="#9F9F9F" opacity="1.000000" stroke="none" 
	d="
M75.795883,182.108673 
	C75.103333,180.745590 74.410789,179.382523 74.180717,177.604126 
	C74.948639,177.119110 75.254074,177.049438 75.766388,177.218872 
	C77.267860,180.018127 77.956680,183.212646 81.840759,183.061188 
	C82.362495,183.949600 82.884239,184.838028 83.694618,185.866760 
	C82.908073,186.635223 81.832886,187.263397 80.420258,187.916351 
	C79.888046,187.379593 79.693268,186.818054 79.064423,185.863510 
	C77.685524,184.349899 76.740700,183.229279 75.795883,182.108673 
z"/>
<path fill="#9F9F9F" opacity="1.000000" stroke="none" 
	d="
M64.037140,176.342636 
	C65.531326,176.703064 67.035271,177.418793 68.884613,177.999298 
	C69.230011,177.864059 69.171616,177.932220 69.000488,178.221588 
	C69.238190,179.130798 69.647003,179.750626 70.055817,180.370453 
	C70.372154,179.911575 70.688492,179.452698 71.004837,178.993820 
	C72.094414,180.284836 73.183990,181.575851 74.609634,183.397903 
	C74.919205,184.933731 74.892700,185.938538 74.866196,186.943329 
	C74.866203,186.943329 74.930237,186.902939 74.905655,186.873550 
	C74.473785,186.883545 74.066513,186.922943 73.352745,186.934845 
	C71.739861,185.854675 70.433464,184.801971 68.868622,183.553055 
	C67.089081,181.137207 65.567986,178.917587 64.037140,176.342636 
z"/>
<path fill="#313131" opacity="1.000000" stroke="none" 
	d="
M163.666016,64.916214 
	C165.950821,65.670380 167.846191,66.443726 169.645050,67.627716 
	C166.959961,67.414932 164.371399,66.791489 161.396545,66.143448 
	C159.589279,65.766167 158.168320,65.413483 156.380646,65.075256 
	C156.266479,64.755768 156.519043,64.421814 157.027405,63.897202 
	C159.281006,64.116165 161.278809,64.525780 163.666016,64.916214 
z"/>
<path fill="#DDDDDD" opacity="1.000000" stroke="none" 
	d="
M201.305908,180.957306 
	C201.477768,180.682755 201.930054,180.381775 202.662140,180.058624 
	C202.490082,180.334579 202.038208,180.632721 201.305908,180.957306 
z"/>
<path fill="#212121" opacity="1.000000" stroke="none" 
	d="
M75.224541,186.967957 
	C74.892700,185.938538 74.919205,184.933731 74.891289,183.554596 
	C74.995255,182.895813 75.182724,182.632065 75.597580,182.248825 
	C76.740700,183.229279 77.685524,184.349899 78.787643,185.741959 
	C77.824249,186.339798 76.703568,186.666199 75.224541,186.967957 
z"/>
<path fill="#DDDDDD" opacity="1.000000" stroke="none" 
	d="
M86.373466,87.000854 
	C85.702164,86.789177 85.409035,86.578079 84.910263,86.190369 
	C84.966118,85.739616 85.227615,85.465485 86.105690,85.134323 
	C87.186455,85.059326 87.650658,85.041367 88.114853,85.023407 
	C88.884598,85.273972 89.654343,85.524536 90.424088,85.775093 
	C90.394859,86.043678 90.365631,86.312263 90.336403,86.580856 
	C89.141479,86.721046 87.946564,86.861237 86.373466,87.000854 
z"/>
<path fill="#BFBFBF" opacity="1.000000" stroke="none" 
	d="
M87.945282,84.775024 
	C87.650658,85.041367 87.186455,85.059326 86.376236,85.046326 
	C86.021622,84.840401 86.013031,84.665443 86.052925,84.232239 
	C86.659515,84.158203 87.217621,84.342422 87.945282,84.775024 
z"/>
<path fill="#BFBFBF" opacity="1.000000" stroke="none" 
	d="
M89.486084,99.213593 
	C89.358513,98.439117 89.552124,97.547531 90.144424,96.199249 
	C91.034668,95.174316 91.526207,94.606071 92.210091,93.877205 
	C92.263336,93.217751 92.124237,92.718910 91.704414,92.177124 
	C91.237556,92.099533 91.051430,92.064896 90.865295,92.030266 
	C92.708229,89.428696 94.414383,86.708252 96.495483,84.313675 
	C96.982750,83.753014 98.739777,84.295876 99.702942,84.800598 
	C98.998917,85.849152 98.504555,86.428139 97.799210,87.125336 
	C97.325035,87.443787 97.129761,87.696518 96.886917,88.058990 
	C96.771439,88.116249 96.785904,88.440918 96.785904,88.440918 
	C96.785904,88.440918 96.997528,87.996872 97.221825,87.894333 
	C97.723824,87.589081 97.905525,87.321236 98.311317,86.950485 
	C99.084114,86.271454 99.536804,85.630188 99.989494,84.988922 
	C100.808640,85.017799 101.627785,85.046684 102.855865,85.103210 
	C98.778954,89.786064 94.293114,94.441277 89.486084,99.213593 
z"/>
<path fill="#696969" opacity="1.000000" stroke="none" 
	d="
M81.862282,182.676636 
	C77.956680,183.212646 77.267860,180.018127 75.596848,176.847580 
	C75.087563,174.308578 74.954681,172.379974 74.901810,170.732071 
	C75.571541,171.132935 76.161255,171.253098 76.750969,171.373260 
	C76.750969,171.373260 76.919991,171.101166 76.994255,170.958984 
	C78.673615,174.641907 80.278709,178.466980 81.862282,182.676636 
z"/>
<path fill="#8C8C8C" opacity="1.000000" stroke="none" 
	d="
M210.985977,110.391113 
	C210.981812,111.598381 210.947052,112.457336 210.868057,113.741379 
	C210.185638,113.353249 209.547485,112.540016 208.876984,111.052826 
	C208.812378,109.572746 208.780090,108.766632 208.747787,107.960518 
	C208.747787,107.960518 209.005814,108.004234 209.136169,108.017853 
	C209.266541,108.031471 209.625702,107.998566 209.805649,108.012100 
	C210.113632,108.180313 210.247375,108.329865 210.484741,108.570503 
	C210.706909,109.125412 210.831146,109.584106 210.985977,110.391113 
z"/>
<path fill="#353535" opacity="1.000000" stroke="none" 
	d="
M208.383286,107.984589 
	C208.780090,108.766632 208.812378,109.572746 208.742432,110.769196 
	C207.753494,110.351028 206.866806,109.542511 205.899292,108.432076 
	C206.551910,108.089653 207.285339,108.049149 208.383286,107.984589 
z"/>
<path fill="#727272" opacity="1.000000" stroke="none" 
	d="
M202.648270,94.023094 
	C203.058701,94.423004 203.253143,94.711014 203.669632,95.142670 
	C203.966751,95.779755 204.041809,96.273178 204.062302,97.140427 
	C203.857056,97.386528 203.706360,97.258789 203.263611,97.080124 
	C202.833633,96.721558 202.695709,96.413902 202.309097,96.023590 
	C201.895248,95.656433 201.730118,95.371933 201.325714,95.002075 
	C201.063324,94.560555 200.907074,94.278000 200.393478,93.961205 
	C200.169235,93.853371 200.082642,93.424690 200.318405,93.207138 
	C200.752792,92.977264 200.951431,92.964935 201.150055,92.952606 
	C201.150055,92.952606 201.528122,93.021698 201.715088,93.065613 
	C201.994644,93.432411 202.171387,93.699631 202.648270,94.023094 
z"/>
<path fill="#696969" opacity="1.000000" stroke="none" 
	d="
M197.770599,91.213875 
	C198.206329,91.085922 198.949036,91.169670 199.846558,91.655403 
	C199.360107,91.846779 198.718842,91.636185 197.770599,91.213875 
z"/>
<path fill="#696969" opacity="1.000000" stroke="none" 
	d="
M201.096634,92.730217 
	C200.951431,92.964935 200.752792,92.977264 200.255737,92.997635 
	C199.820129,92.843956 199.682922,92.682220 199.742737,92.270668 
	C200.107025,92.000267 200.274323,91.979683 200.688995,92.011063 
	C200.936386,92.063042 201.043213,92.507828 201.096634,92.730217 
z"/>
<path fill="#DDDDDD" opacity="1.000000" stroke="none" 
	d="
M90.596344,92.055145 
	C91.051430,92.064896 91.237556,92.099533 91.710648,92.478561 
	C92.004318,93.227913 92.011032,93.632866 92.017746,94.037819 
	C91.526207,94.606071 91.034668,95.174316 90.295341,95.883011 
	C89.779037,95.934456 89.533913,95.802139 89.407379,95.277893 
	C89.335907,94.265862 89.169243,93.602440 89.002579,92.939011 
	C89.444183,92.652679 89.885796,92.366356 90.596344,92.055145 
z"/>
<path fill="#DDDDDD" opacity="1.000000" stroke="none" 
	d="
M85.494415,91.983490 
	C85.449440,91.211555 85.738495,90.425964 86.089691,89.323044 
	C86.684990,89.476593 87.218147,89.947487 87.751305,90.418373 
	C87.110352,90.935532 86.469406,91.452682 85.494415,91.983490 
z"/>
<path fill="#BFBFBF" opacity="1.000000" stroke="none" 
	d="
M88.808411,93.158554 
	C89.169243,93.602440 89.335907,94.265862 89.257355,95.131950 
	C88.879501,94.682442 88.746872,94.030266 88.808411,93.158554 
z"/>
<path fill="#BFBFBF" opacity="1.000000" stroke="none" 
	d="
M83.308731,88.318779 
	C82.958412,88.620262 82.608093,88.921753 82.257774,89.223236 
	C82.321884,88.857292 82.386002,88.491356 82.786362,88.124283 
	C83.122604,88.123154 83.308731,88.318779 83.308731,88.318779 
z"/>
<path fill="#BFBFBF" opacity="1.000000" stroke="none" 
	d="
M83.029541,88.025345 
	C83.143280,87.713463 83.350067,87.499382 83.556862,87.285309 
	C83.602905,87.539482 83.648949,87.793663 83.501862,88.183304 
	C83.308731,88.318779 83.122604,88.123154 83.029541,88.025345 
z"/>
<path fill="#D8D8D8" opacity="1.000000" stroke="none" 
	d="
M74.821793,170.451370 
	C74.954681,172.379974 75.087563,174.308578 75.389984,176.608459 
	C75.254074,177.049438 74.948639,177.119110 74.179955,177.271454 
	C72.468323,174.501831 71.219933,171.649551 70.251282,168.373810 
	C70.531021,167.950333 71.002647,167.914917 71.002640,167.914917 
	C72.049484,168.924698 73.096329,169.934479 74.493896,170.718674 
	C74.844627,170.493088 74.821800,170.451370 74.821793,170.451370 
z"/>
<path fill="#494949" opacity="1.000000" stroke="none" 
	d="
M70.933182,167.614502 
	C71.002647,167.914917 70.531021,167.950333 70.297134,167.985260 
	C69.571724,167.708298 69.067497,167.412521 68.612442,167.054276 
	C68.575455,167.025162 68.982635,166.335678 69.002243,166.344742 
	C69.636482,166.638123 70.248428,166.979691 70.933182,167.614502 
z"/>
<path fill="#DDDDDD" opacity="1.000000" stroke="none" 
	d="
M70.851639,178.718643 
	C70.688492,179.452698 70.372154,179.911575 70.055817,180.370453 
	C69.647003,179.750626 69.238190,179.130798 68.957695,178.208069 
	C69.623497,178.084595 70.160973,178.264023 70.851639,178.718643 
z"/>
<path fill="#727272" opacity="1.000000" stroke="none" 
	d="
M69.594070,164.309631 
	C69.737511,163.993607 70.019623,163.821442 70.301727,163.649277 
	C70.112068,163.917343 69.922401,164.185425 69.594070,164.309631 
z"/>
<path fill="#A8A8A8" opacity="1.000000" stroke="none" 
	d="
M74.901810,170.732071 
	C74.821800,170.451370 74.844627,170.493088 74.828232,170.509567 
	C75.327461,170.644104 75.843086,170.762177 76.554840,171.126740 
	C76.161255,171.253098 75.571541,171.132935 74.901810,170.732071 
z"/>
<path fill="#DBDBDB" opacity="1.000000" stroke="none" 
	d="
M98.010193,87.007133 
	C98.504555,86.428139 98.998917,85.849152 99.751068,85.138168 
	C100.008858,85.006165 99.999329,84.999329 99.994415,84.994125 
	C99.536804,85.630188 99.084114,86.271454 98.315536,86.956116 
	C97.999649,86.999527 98.010193,87.007133 98.010193,87.007133 
z"/>
<path fill="#DBDBDB" opacity="1.000000" stroke="none" 
	d="
M92.210091,93.877205 
	C92.011032,93.632866 92.004318,93.227913 91.991364,92.521515 
	C92.124237,92.718910 92.263336,93.217751 92.210091,93.877205 
z"/>
<path fill="#DBDBDB" opacity="1.000000" stroke="none" 
	d="
M97.995430,86.993889 
	C97.905525,87.321236 97.723824,87.589081 97.223061,87.895889 
	C97.000000,88.000000 97.002403,88.001732 97.002403,88.001732 
	C97.129761,87.696518 97.325035,87.443787 97.799210,87.125336 
	C98.010193,87.007133 97.999649,86.999527 97.995430,86.993889 
z"/>
<path fill="#DBDBDB" opacity="1.000000" stroke="none" 
	d="
M96.998764,87.998436 
	C96.997528,87.996872 96.785904,88.440918 96.785904,88.440918 
	C96.785904,88.440918 96.771439,88.116249 96.886917,88.058990 
	C97.002403,88.001732 97.000000,88.000000 96.998764,87.998436 
z"/>
</svg>